<svg width="240" height="838" viewBox="0 0 240 838" fill="none" xmlns="http://www.w3.org/2000/svg">
<path d="M82 757.5L82.9963 757.586L82 757.5ZM67.5 500.5L66.5045 500.405L66.5042 500.409L67.5 500.5ZM198.5 247.5L197.659 248.041C197.681 248.076 197.706 248.109 197.732 248.141L198.5 247.5ZM3.28861 962.556C3.61133 962.108 3.50963 961.483 3.06145 961.161C2.61327 960.838 1.98833 960.94 1.6656 961.388L3.28861 962.556ZM4.60214 957.223C4.28806 957.678 4.40172 958.3 4.856 958.615C5.31028 958.929 5.93316 958.815 6.24724 958.361L4.60214 957.223ZM9.12836 954.119C9.43509 953.66 9.31142 953.039 8.85215 952.732C8.39287 952.425 7.7719 952.549 7.46517 953.008L9.12836 954.119ZM10.2551 948.765C9.95486 949.229 10.0873 949.848 10.5508 950.148C11.0144 950.448 11.6335 950.316 11.9338 949.852L10.2551 948.765ZM14.6836 945.545C14.9778 945.078 14.8375 944.461 14.3702 944.166C13.9028 943.872 13.2854 944.012 12.9911 944.48L14.6836 945.545ZM15.671 940.166C15.3823 940.637 15.5299 941.253 16.0007 941.542C16.4716 941.83 17.0873 941.683 17.376 941.212L15.671 940.166ZM20.015 936.853C20.2984 936.379 20.1439 935.765 19.6699 935.481C19.1959 935.198 18.5818 935.352 18.2984 935.826L20.015 936.853ZM20.8796 931.456C20.6013 931.933 20.7624 932.545 21.2394 932.823C21.7164 933.102 22.3288 932.941 22.6071 932.464L20.8796 931.456ZM25.1551 928.044C25.4285 927.564 25.261 926.953 24.7812 926.68C24.3013 926.406 23.6906 926.574 23.4173 927.054L25.1551 928.044ZM25.9135 922.619C25.645 923.102 25.8186 923.711 26.3012 923.979C26.7838 924.248 27.3927 924.074 27.6612 923.592L25.9135 922.619ZM30.1267 919.108C30.3904 918.623 30.2108 918.016 29.7255 917.752C29.2402 917.488 28.6331 917.668 28.3694 918.153L30.1267 919.108ZM30.7773 913.67C30.5183 914.158 30.7038 914.763 31.1916 915.022C31.6794 915.281 32.2848 915.096 32.5438 914.608L30.7773 913.67ZM34.9095 910.099C35.1638 909.609 34.9725 909.005 34.4822 908.751C33.9919 908.497 33.3883 908.688 33.1341 909.178L34.9095 910.099ZM35.4534 904.653C35.2039 905.145 35.401 905.747 35.8937 905.997C36.3864 906.246 36.9881 906.049 37.2376 905.556L35.4534 904.653ZM39.5274 900.981C39.7721 900.486 39.5692 899.886 39.0741 899.641C38.5791 899.396 37.9793 899.599 37.7345 900.094L39.5274 900.981ZM39.9654 895.527C39.7254 896.025 39.934 896.622 40.4314 896.862C40.9288 897.102 41.5266 896.894 41.7666 896.396L39.9654 895.527ZM43.9597 891.795C44.1949 891.296 43.9805 890.7 43.4808 890.465C42.9811 890.229 42.3854 890.444 42.1501 890.943L43.9597 891.795ZM44.2962 886.326C44.0659 886.828 44.286 887.422 44.788 887.652C45.2899 887.883 45.8836 887.662 46.1139 887.16L44.2962 886.326ZM48.2229 882.505C48.4483 882.001 48.2223 881.409 47.7182 881.184C47.214 880.958 46.6225 881.184 46.3971 881.689L48.2229 882.505ZM48.4459 877.045C48.2254 877.551 48.4572 878.141 48.9636 878.361C49.47 878.581 50.0592 878.35 50.2797 877.843L48.4459 877.045ZM52.2954 873.148C52.5107 872.64 52.273 872.053 51.7645 871.838C51.2559 871.622 50.669 871.86 50.4537 872.369L52.2954 873.148ZM52.4148 867.671C52.2047 868.182 52.4483 868.766 52.9591 868.976C53.4698 869.186 54.0542 868.943 54.2644 868.432L52.4148 867.671ZM56.1798 863.708C56.3847 863.195 56.1351 862.613 55.6222 862.408C55.1093 862.204 54.5275 862.453 54.3226 862.966L56.1798 863.708ZM56.1857 858.231C55.9862 858.746 56.242 859.325 56.757 859.524C57.2719 859.724 57.8512 859.468 58.0507 858.953L56.1857 858.231ZM59.8703 854.18C60.0643 853.663 59.8023 853.087 59.2852 852.893C58.7681 852.699 58.1917 852.961 57.9977 853.478L59.8703 854.18ZM59.7559 848.712C59.5676 849.231 59.8358 849.805 60.355 849.993C60.8741 850.182 61.4477 849.914 61.636 849.394L59.7559 848.712ZM63.3524 844.58C63.535 844.058 63.2604 843.488 62.7392 843.305C62.2179 843.123 61.6474 843.397 61.4648 843.919L63.3524 844.58ZM63.1174 839.113C62.9407 839.636 63.2218 840.204 63.7451 840.38C64.2683 840.557 64.8357 840.276 65.0123 839.753L63.1174 839.113ZM66.617 834.906C66.7875 834.381 66.4999 833.817 65.9746 833.646C65.4493 833.475 64.8852 833.763 64.7147 834.288L66.617 834.906ZM66.2571 829.439C66.0929 829.966 66.3872 830.527 66.9145 830.691C67.4418 830.855 68.0024 830.561 68.1666 830.034L66.2571 829.439ZM69.6546 825.153C69.8124 824.624 69.5113 824.067 68.9821 823.909C68.4528 823.751 67.8958 824.052 67.738 824.581L69.6546 825.153ZM69.1603 819.701C69.0091 820.232 69.3172 820.785 69.8484 820.936C70.3796 821.087 70.9327 820.779 71.0839 820.248L69.1603 819.701ZM72.4512 815.325C72.5956 814.792 72.2805 814.242 71.7474 814.098C71.2143 813.954 70.6651 814.269 70.5208 814.802L72.4512 815.325ZM71.8163 809.89C71.679 810.425 72.0013 810.97 72.5363 811.107C73.0712 811.245 73.6162 810.922 73.7535 810.387L71.8163 809.89ZM74.9906 805.429C75.1207 804.892 74.791 804.352 74.2542 804.221C73.7175 804.091 73.1769 804.421 73.0469 804.958L74.9906 805.429ZM74.2089 800.012C74.0863 800.551 74.4235 801.087 74.962 801.209C75.5006 801.332 76.0365 800.994 76.159 800.456L74.2089 800.012ZM77.2572 795.466C77.372 794.926 77.0271 794.395 76.4869 794.28C75.9467 794.165 75.4157 794.51 75.3009 795.05L77.2572 795.466ZM76.3205 790.072C76.2137 790.614 76.5664 791.14 77.1083 791.247C77.6501 791.354 78.176 791.001 78.2828 790.459L76.3205 790.072ZM79.2329 785.438C79.3315 784.895 78.9708 784.374 78.4274 784.276C77.884 784.177 77.3636 784.538 77.265 785.081L79.2329 785.438ZM78.1323 780.076C78.0423 780.621 78.4111 781.136 78.956 781.226C79.5009 781.316 80.0156 780.947 80.1056 780.402L78.1323 780.076ZM80.8977 775.353C80.9789 774.807 80.6018 774.298 80.0555 774.217C79.5092 774.136 79.0006 774.513 78.9194 775.059L80.8977 775.353ZM79.6239 770.029C79.5519 770.577 79.9374 771.079 80.485 771.151C81.0326 771.223 81.5348 770.838 81.6068 770.29L79.6239 770.029ZM82.2297 765.217C82.2923 764.668 81.8981 764.172 81.3494 764.11C80.8007 764.047 80.3051 764.441 80.2426 764.99L82.2297 765.217ZM80.7729 759.94C80.7202 760.49 81.1231 760.978 81.6728 761.031C82.2226 761.083 82.711 760.681 82.7638 760.131L80.7729 759.94ZM83.2106 755.037C83.2554 754.486 82.8454 754.004 82.295 753.959C81.7445 753.914 81.262 754.324 81.2172 754.875L83.2106 755.037ZM81.5926 749.925C81.5539 750.476 81.9691 750.954 82.5201 750.993C83.071 751.032 83.549 750.617 83.5877 750.066L81.5926 749.925ZM83.9077 745.091C83.9398 744.539 83.5189 744.066 82.9676 744.034C82.4162 744.002 81.9432 744.423 81.9111 744.974L83.9077 745.091ZM82.168 740.031C82.1429 740.583 82.5698 741.051 83.1215 741.076C83.6732 741.101 84.1408 740.674 84.1659 740.122L82.168 740.031ZM84.3595 735.12C84.377 734.568 83.9438 734.106 83.3917 734.088C82.8397 734.071 82.3781 734.504 82.3605 735.056L84.3595 735.12ZM82.4809 730.147C82.4714 730.699 82.9114 731.155 83.4636 731.164C84.0158 731.174 84.4711 730.734 84.4806 730.181L82.4809 730.147ZM84.5273 725.143C84.528 724.591 84.0808 724.143 83.5286 724.142C82.9763 724.141 82.528 724.588 82.5273 725.141L84.5273 725.143ZM82.4927 720.214C82.5012 720.766 82.9558 721.207 83.508 721.198C84.0603 721.19 84.501 720.735 84.4925 720.183L82.4927 720.214ZM84.3711 715.19C84.3527 714.638 83.8903 714.205 83.3383 714.224C82.7864 714.242 82.3538 714.704 82.3722 715.256L84.3711 715.19ZM82.1601 710.288C82.1889 710.84 82.6594 711.263 83.2109 711.234C83.7624 711.206 84.1862 710.735 84.1574 710.184L82.1601 710.288ZM83.85 705.221C83.8104 704.67 83.3318 704.256 82.7809 704.295C82.2301 704.335 81.8156 704.813 81.8551 705.364L83.85 705.221ZM81.452 700.442C81.5026 700.991 81.9895 701.396 82.5395 701.346C83.0894 701.295 83.4942 700.808 83.4436 700.258L81.452 700.442ZM82.9325 695.269C82.8706 694.72 82.3755 694.326 81.8267 694.388C81.2779 694.45 80.8832 694.945 80.9452 695.493L82.9325 695.269ZM80.3398 690.577C80.4129 691.125 80.9158 691.509 81.4633 691.436C82.0107 691.363 82.3953 690.86 82.3223 690.313L80.3398 690.577ZM81.615 685.379C81.5313 684.834 81.021 684.459 80.475 684.542C79.9291 684.626 79.5544 685.136 79.638 685.682L81.615 685.379ZM78.8443 680.802C78.9378 681.346 79.4548 681.711 79.9991 681.618C80.5434 681.525 80.9089 681.007 80.8154 680.463L78.8443 680.802ZM79.9307 675.554C79.8285 675.011 79.3057 674.654 78.7629 674.756C78.2202 674.858 77.863 675.381 77.9652 675.924L79.9307 675.554ZM77.0132 671.051C77.1225 671.592 77.65 671.943 78.1914 671.833C78.7327 671.724 79.0829 671.196 78.9736 670.655L77.0132 671.051ZM77.9615 665.777C77.8468 665.236 77.3159 664.891 76.7757 665.006C76.2354 665.121 75.8904 665.652 76.0051 666.192L77.9615 665.777ZM74.9579 661.34C75.0759 661.88 75.6089 662.221 76.1484 662.103C76.688 661.985 77.0297 661.452 76.9117 660.913L74.9579 661.34ZM75.8423 656.057C75.723 655.518 75.1892 655.177 74.65 655.296C74.1107 655.416 73.7702 655.949 73.8894 656.489L75.8423 656.057ZM72.818 651.632C72.9364 652.171 73.4696 652.512 74.0091 652.394C74.5485 652.276 74.8899 651.742 74.7715 651.203L72.818 651.632ZM73.7166 646.343C73.6009 645.803 73.0694 645.459 72.5293 645.575C71.9893 645.69 71.6452 646.222 71.7609 646.762L73.7166 646.343ZM70.7356 641.882C70.8468 642.423 71.3756 642.771 71.9165 642.66C72.4575 642.549 72.8059 642.02 72.6946 641.479L70.7356 641.882ZM71.7227 636.626C71.6172 636.084 71.0922 635.73 70.5501 635.836C70.008 635.941 69.654 636.466 69.7595 637.008L71.7227 636.626ZM68.8391 632.119C68.9378 632.662 69.4583 633.023 70.0017 632.924C70.5451 632.825 70.9056 632.305 70.8069 631.761L68.8391 632.119ZM69.9537 626.874C69.8625 626.329 69.3471 625.961 68.8024 626.052C68.2577 626.144 67.89 626.659 67.9811 627.204L69.9537 626.874ZM67.1898 622.251C67.2729 622.797 67.7829 623.173 68.3288 623.09C68.8749 623.006 69.2501 622.496 69.1671 621.951L67.1898 622.251ZM68.4617 617.068C68.3869 616.521 67.8826 616.138 67.3354 616.213C66.7882 616.288 66.4053 616.792 66.4802 617.339L68.4617 617.068ZM65.8435 612.406C65.91 612.955 66.4084 613.345 66.9567 613.279C67.5049 613.212 67.8954 612.714 67.8289 612.165L65.8435 612.406ZM67.2652 607.207C67.2069 606.658 66.7145 606.26 66.1653 606.318C65.6161 606.376 65.2181 606.869 65.2763 607.418L67.2652 607.207ZM64.7889 602.478C64.8391 603.028 65.3257 603.433 65.8757 603.383C66.4257 603.333 66.8308 602.846 66.7806 602.296L64.7889 602.478ZM66.3655 597.365C66.323 596.814 65.8422 596.402 65.2915 596.444C64.7409 596.487 64.3289 596.968 64.3714 597.518L66.3655 597.365ZM64.019 592.498C64.0539 593.049 64.5291 593.468 65.0802 593.433C65.6314 593.398 66.0499 592.923 66.015 592.372L64.019 592.498ZM65.7364 587.474C65.7086 586.923 65.2388 586.498 64.6873 586.526C64.1357 586.554 63.7111 587.024 63.739 587.575L65.7364 587.474ZM63.5162 582.537C63.5372 583.088 64.0016 583.519 64.5535 583.498C65.1053 583.477 65.5357 583.012 65.5147 582.461L63.5162 582.537ZM65.3569 577.561C65.3422 577.008 64.8828 576.573 64.3307 576.587C63.7786 576.602 63.3429 577.061 63.3576 577.614L65.3569 577.561ZM63.2526 572.58C63.261 573.132 63.7155 573.573 64.2678 573.564C64.82 573.556 65.2608 573.101 65.2523 572.549L63.2526 572.58ZM65.2026 567.639C65.1998 567.087 64.7499 566.642 64.1976 566.644C63.6453 566.647 63.1998 567.097 63.2026 567.649L65.2026 567.639ZM63.2027 562.603C63.2 563.155 63.6455 563.605 64.1978 563.608C64.75 563.611 65.2 563.165 65.2027 562.613L63.2027 562.603ZM65.2497 557.717C65.2575 557.165 64.8162 556.711 64.264 556.703C63.7117 556.696 63.2577 557.137 63.2499 557.689L65.2497 557.717ZM63.3446 552.619C63.3318 553.172 63.7691 553.63 64.3212 553.642C64.8734 553.655 65.3313 553.218 65.344 552.666L63.3446 552.619ZM65.4768 547.79C65.494 547.238 65.0605 546.777 64.5085 546.76C63.9565 546.742 63.495 547.176 63.4777 547.728L65.4768 547.79ZM63.6548 542.707C63.6332 543.259 64.063 543.724 64.6149 543.745C65.1668 543.767 65.6317 543.337 65.6533 542.785L63.6548 542.707ZM65.8655 537.844C65.8912 537.292 65.4648 536.824 64.9132 536.799C64.3615 536.773 63.8934 537.199 63.8677 537.751L65.8655 537.844ZM64.1162 532.796C64.0866 533.348 64.5097 533.819 65.0612 533.849C65.6127 533.878 66.0837 533.455 66.1133 532.904L64.1162 532.796ZM66.4014 527.857C66.4347 527.306 66.0148 526.832 65.4635 526.799C64.9123 526.765 64.4383 527.185 64.405 527.737L66.4014 527.857ZM64.715 522.862C64.6783 523.413 65.0952 523.889 65.6463 523.926C66.1973 523.963 66.6739 523.546 66.7106 522.995L64.715 522.862ZM67.0584 518.008C67.0985 517.457 66.6844 516.978 66.1336 516.938C65.5828 516.898 65.1038 517.312 65.0637 517.863L67.0584 518.008ZM65.4413 512.872C65.3981 513.422 65.8094 513.904 66.36 513.947C66.9106 513.99 67.392 513.579 67.4352 513.028L65.4413 512.872ZM67.8323 508.14C67.8785 507.59 67.4698 507.106 66.9195 507.06C66.3691 507.014 65.8855 507.422 65.8393 507.973L67.8323 508.14ZM66.2734 502.959C66.2243 503.509 66.6305 503.995 67.1806 504.044C67.7307 504.093 68.2164 503.687 68.2655 503.137L66.2734 502.959ZM68.7674 498.063C68.8328 497.514 68.4413 497.017 67.8929 496.951C67.3445 496.886 66.8469 497.277 66.7814 497.826L68.7674 498.063ZM67.5059 492.769C67.4146 493.313 67.7821 493.829 68.3268 493.92C68.8715 494.012 69.3871 493.644 69.4783 493.099L67.5059 492.769ZM70.4339 488.139C70.5516 487.6 70.2095 487.067 69.6699 486.949C69.1303 486.832 68.5975 487.174 68.4798 487.713L70.4339 488.139ZM69.6929 482.741C69.5488 483.274 69.8642 483.823 70.3973 483.967C70.9305 484.112 71.4795 483.796 71.6236 483.263L69.6929 482.741ZM73.0556 478.443C73.226 477.918 72.9383 477.354 72.4129 477.183C71.8876 477.013 71.3236 477.301 71.1532 477.826L73.0556 478.443ZM72.86 472.98C72.6636 473.496 72.9228 474.074 73.439 474.27C73.9552 474.467 74.5328 474.208 74.7293 473.691L72.86 472.98ZM76.6313 469.043C76.8531 468.537 76.6227 467.947 76.1169 467.725C75.6111 467.504 75.0213 467.734 74.7996 468.24L76.6313 469.043ZM76.973 463.595C76.7268 464.089 76.9279 464.69 77.4223 464.936C77.9167 465.182 78.517 464.981 78.7633 464.487L76.973 463.595ZM81.1167 460.034C81.3864 459.552 81.2143 458.942 80.7324 458.673C80.2504 458.403 79.6411 458.575 79.3714 459.057L81.1167 460.034ZM81.9778 454.646C81.6859 455.115 81.8293 455.731 82.2981 456.023C82.7669 456.315 83.3836 456.172 83.6755 455.703L81.9778 454.646ZM86.4328 451.493C86.7457 451.038 86.6305 450.415 86.1754 450.102C85.7203 449.789 85.0977 449.905 84.7848 450.36L86.4328 451.493ZM87.7826 446.2C87.45 446.641 87.5379 447.268 87.9788 447.6C88.4197 447.933 89.0468 447.845 89.3793 447.404L87.7826 446.2ZM92.4974 443.447C92.8482 443.021 92.7868 442.391 92.3603 442.04C91.9337 441.689 91.3036 441.75 90.9527 442.177L92.4974 443.447ZM94.2836 438.29C93.9159 438.702 93.9519 439.335 94.364 439.702C94.7761 440.07 95.4083 440.034 95.7759 439.622L94.2836 438.29ZM99.2067 435.923C99.5899 435.526 99.5782 434.893 99.1805 434.509C98.7829 434.126 98.1498 434.138 97.7666 434.536L99.2067 435.923ZM101.385 430.916C100.988 431.3 100.976 431.933 101.36 432.33C101.743 432.728 102.376 432.739 102.774 432.356L101.385 430.916ZM106.466 428.917C106.876 428.548 106.909 427.916 106.54 427.505C106.171 427.094 105.538 427.061 105.128 427.431L106.466 428.917ZM108.986 424.073C108.563 424.429 108.509 425.06 108.865 425.482C109.221 425.905 109.852 425.959 110.274 425.603L108.986 424.073ZM114.189 422.41C114.622 422.068 114.696 421.439 114.354 421.005C114.011 420.572 113.382 420.498 112.949 420.841L114.189 422.41ZM117.005 417.732C116.562 418.062 116.47 418.688 116.799 419.131C117.129 419.575 117.755 419.667 118.199 419.337L117.005 417.732ZM122.293 416.381C122.746 416.064 122.855 415.441 122.538 414.988C122.221 414.536 121.598 414.427 121.145 414.744L122.293 416.381ZM125.37 411.865C124.91 412.17 124.784 412.79 125.089 413.251C125.394 413.711 126.014 413.837 126.475 413.532L125.37 411.865ZM130.726 410.791C131.194 410.498 131.335 409.881 131.042 409.413C130.749 408.945 130.131 408.804 129.664 409.097L130.726 410.791ZM134.016 406.439C133.541 406.721 133.385 407.335 133.668 407.809C133.95 408.284 134.564 408.44 135.039 408.157L134.016 406.439ZM139.416 405.619C139.897 405.347 140.067 404.737 139.795 404.256C139.523 403.775 138.913 403.606 138.432 403.878L139.416 405.619ZM142.907 401.411C142.421 401.673 142.238 402.279 142.5 402.766C142.761 403.252 143.368 403.434 143.854 403.173L142.907 401.411ZM148.336 400.821C148.828 400.569 149.022 399.966 148.77 399.475C148.519 398.983 147.916 398.789 147.424 399.04L148.336 400.821ZM151.977 396.762C151.481 397.005 151.275 397.604 151.518 398.1C151.76 398.596 152.359 398.802 152.855 398.559L151.977 396.762ZM157.428 396.375C157.928 396.142 158.144 395.546 157.911 395.046C157.677 394.546 157.082 394.329 156.581 394.563L157.428 396.375ZM161.229 392.441C160.724 392.666 160.498 393.257 160.723 393.762C160.949 394.266 161.54 394.492 162.044 394.267L161.229 392.441ZM166.69 392.236C167.198 392.019 167.433 391.431 167.216 390.924C166.999 390.416 166.411 390.18 165.903 390.398L166.69 392.236ZM170.601 388.429C170.09 388.639 169.846 389.223 170.055 389.734C170.265 390.245 170.849 390.489 171.36 390.279L170.601 388.429ZM176.053 388.391C176.567 388.188 176.819 387.607 176.616 387.093C176.414 386.579 175.833 386.327 175.319 386.53L176.053 388.391ZM180.057 384.695C179.541 384.891 179.282 385.469 179.478 385.985C179.674 386.501 180.252 386.761 180.768 386.564L180.057 384.695ZM185.519 384.789C186.038 384.599 186.304 384.024 186.113 383.506C185.923 382.987 185.348 382.721 184.83 382.912L185.519 384.789ZM189.619 381.179C189.098 381.365 188.827 381.937 189.013 382.457C189.198 382.977 189.77 383.248 190.29 383.063L189.619 381.179ZM195.068 381.38C195.589 381.199 195.865 380.629 195.683 380.107C195.501 379.586 194.931 379.31 194.41 379.492L195.068 381.38ZM199.242 377.821C198.72 378 198.442 378.57 198.622 379.092C198.802 379.614 199.371 379.892 199.893 379.712L199.242 377.821ZM204.725 378.045C205.246 377.863 205.522 377.293 205.341 376.772C205.159 376.25 204.589 375.974 204.068 376.156L204.725 378.045ZM208.79 374.472C208.272 374.664 208.008 375.24 208.2 375.758C208.391 376.275 208.967 376.54 209.485 376.348L208.79 374.472ZM214.201 374.399C214.699 374.16 214.909 373.563 214.67 373.065C214.431 372.567 213.834 372.357 213.336 372.596L214.201 374.399ZM217.566 370.243C217.1 370.539 216.963 371.157 217.259 371.623C217.556 372.089 218.174 372.226 218.64 371.93L217.566 370.243ZM222.753 368.965C223.182 368.617 223.248 367.987 222.899 367.558C222.551 367.129 221.922 367.064 221.493 367.412L222.753 368.965ZM225.073 364.15C224.686 364.544 224.693 365.178 225.088 365.564C225.482 365.95 226.116 365.943 226.502 365.549L225.073 364.15ZM229.84 361.724C230.178 361.288 230.099 360.659 229.663 360.321C229.227 359.982 228.599 360.061 228.26 360.497L229.84 361.724ZM231.01 356.504C230.723 356.976 230.873 357.591 231.345 357.878C231.817 358.165 232.432 358.014 232.719 357.542L231.01 356.504ZM235.101 353.072C235.333 352.571 235.115 351.976 234.614 351.744C234.113 351.512 233.518 351.73 233.286 352.231L235.101 353.072ZM235.082 347.718C234.906 348.241 235.187 348.808 235.711 348.984C236.234 349.16 236.801 348.879 236.977 348.355L235.082 347.718ZM238.336 343.485C238.457 342.946 238.119 342.411 237.58 342.29C237.041 342.169 236.506 342.508 236.385 343.047L238.336 343.485ZM237.216 338.259C237.148 338.807 237.537 339.307 238.085 339.375C238.633 339.443 239.132 339.055 239.201 338.507L237.216 338.259ZM239.599 333.463C239.619 332.911 239.187 332.447 238.635 332.428C238.083 332.409 237.62 332.841 237.601 333.393L239.599 333.463ZM237.57 328.507C237.596 329.058 238.063 329.485 238.615 329.459C239.167 329.434 239.593 328.966 239.568 328.414L237.57 328.507ZM239.151 323.409C239.085 322.86 238.587 322.469 238.039 322.534C237.491 322.6 237.099 323.098 237.165 323.646L239.151 323.409ZM236.423 318.812C236.524 319.355 237.046 319.713 237.589 319.612C238.132 319.51 238.49 318.988 238.389 318.445L236.423 318.812ZM237.32 313.541C237.187 313.005 236.644 312.678 236.108 312.811C235.572 312.945 235.246 313.487 235.379 314.023L237.32 313.541ZM234.067 309.288C234.228 309.817 234.787 310.114 235.315 309.953C235.843 309.792 236.141 309.233 235.979 308.704L234.067 309.288ZM234.397 303.938C234.21 303.418 233.638 303.148 233.118 303.334C232.598 303.52 232.328 304.093 232.514 304.612L234.397 303.938ZM230.756 300.023C230.965 300.535 231.548 300.781 232.06 300.572C232.571 300.364 232.817 299.781 232.609 299.269L230.756 300.023ZM230.641 294.697C230.413 294.193 229.821 293.97 229.318 294.198C228.814 294.426 228.591 295.019 228.819 295.522L230.641 294.697ZM226.711 291.08C226.957 291.575 227.557 291.777 228.051 291.532C228.546 291.286 228.748 290.686 228.503 290.191L226.711 291.08ZM226.206 285.742C225.945 285.255 225.338 285.072 224.852 285.333C224.365 285.595 224.182 286.201 224.443 286.687L226.206 285.742ZM222.036 282.356C222.311 282.835 222.922 283 223.401 282.724C223.88 282.449 224.045 281.838 223.77 281.359L222.036 282.356ZM221.245 277.101C220.957 276.63 220.342 276.481 219.87 276.769C219.399 277.057 219.25 277.672 219.538 278.144L221.245 277.101ZM216.908 273.956C217.207 274.42 217.826 274.553 218.29 274.254C218.754 273.954 218.888 273.335 218.588 272.871L216.908 273.956ZM215.825 268.696C215.515 268.238 214.893 268.119 214.436 268.429C213.979 268.739 213.86 269.361 214.17 269.818L215.825 268.696ZM211.375 265.789C211.694 266.239 212.318 266.346 212.769 266.026C213.219 265.707 213.326 265.083 213.006 264.632L211.375 265.789ZM210.061 260.564C209.732 260.12 209.106 260.026 208.662 260.355C208.218 260.683 208.124 261.309 208.452 261.753L210.061 260.564ZM205.5 257.834C205.836 258.272 206.464 258.355 206.902 258.018C207.34 257.682 207.422 257.054 207.086 256.616L205.5 257.834ZM204.011 252.68C203.667 252.248 203.038 252.176 202.606 252.52C202.174 252.864 202.102 253.493 202.446 253.925L204.011 252.68ZM199.342 250.085C199.693 250.512 200.323 250.574 200.75 250.223C201.176 249.873 201.238 249.243 200.888 248.816L199.342 250.085ZM197.928 244.905C197.602 244.46 196.976 244.363 196.53 244.69C196.085 245.016 195.989 245.642 196.315 246.087L197.928 244.905ZM193.286 242.404C193.659 242.812 194.292 242.84 194.699 242.467C195.107 242.094 195.135 241.462 194.762 241.054L193.286 242.404ZM191.237 237.546C190.829 237.174 190.197 237.203 189.825 237.611C189.453 238.02 189.482 238.652 189.89 239.024L191.237 237.546ZM186.215 235.925C186.65 236.266 187.278 236.19 187.619 235.755C187.959 235.32 187.883 234.691 187.448 234.351L186.215 235.925ZM183.471 231.431C183.016 231.117 182.393 231.231 182.08 231.685C181.766 232.14 181.88 232.763 182.335 233.077L183.471 231.431ZM178.293 230.435C178.763 230.726 179.379 230.582 179.67 230.113C179.962 229.643 179.817 229.027 179.348 228.736L178.293 230.435ZM175.118 226.227C174.638 225.954 174.027 226.123 173.755 226.603C173.482 227.083 173.65 227.694 174.13 227.966L175.118 226.227ZM169.875 225.64C170.364 225.898 170.969 225.711 171.227 225.222C171.484 224.734 171.297 224.129 170.809 223.871L169.875 225.64ZM166.441 221.638C165.946 221.392 165.346 221.594 165.1 222.088C164.855 222.583 165.056 223.183 165.551 223.429L166.441 221.638ZM161.176 221.309C161.675 221.545 162.271 221.332 162.507 220.833C162.744 220.334 162.531 219.738 162.032 219.501L161.176 221.309ZM157.598 217.441C157.095 217.212 156.502 217.433 156.273 217.936C156.043 218.438 156.265 219.031 156.767 219.261L157.598 217.441ZM152.329 217.262C152.834 217.487 153.425 217.26 153.65 216.755C153.874 216.251 153.647 215.659 153.143 215.435L152.329 217.262ZM148.674 213.463C148.169 213.242 147.579 213.472 147.357 213.978C147.135 214.484 147.366 215.074 147.872 215.295L148.674 213.463ZM143.402 213.344C143.908 213.565 144.497 213.333 144.718 212.827C144.938 212.32 144.707 211.731 144.2 211.511L143.402 213.344ZM139.727 209.561C139.221 209.34 138.632 209.571 138.41 210.077C138.189 210.584 138.42 211.173 138.927 211.394L139.727 209.561ZM134.454 209.43C134.959 209.654 135.549 209.425 135.772 208.92C135.996 208.415 135.767 207.824 135.262 207.601L134.454 209.43ZM130.812 205.616C130.308 205.389 129.716 205.613 129.489 206.116C129.262 206.62 129.486 207.212 129.99 207.439L130.812 205.616ZM125.542 205.407C126.043 205.639 126.638 205.421 126.87 204.92C127.103 204.419 126.885 203.825 126.384 203.592L125.542 205.407ZM121.984 201.516C121.486 201.276 120.889 201.486 120.65 201.984C120.41 202.481 120.62 203.079 121.117 203.318L121.984 201.516ZM116.722 201.159C117.215 201.407 117.816 201.208 118.064 200.714C118.312 200.221 118.113 199.62 117.619 199.372L116.722 201.159ZM113.299 197.146C112.811 196.888 112.206 197.074 111.948 197.562C111.69 198.05 111.876 198.655 112.364 198.914L113.299 197.146ZM108.056 196.568C108.538 196.838 109.148 196.667 109.418 196.185C109.688 195.704 109.517 195.094 109.035 194.824L108.056 196.568ZM104.84 192.39C104.366 192.106 103.752 192.259 103.468 192.733C103.184 193.207 103.337 193.821 103.811 194.105L104.84 192.39ZM99.6409 191.509C100.105 191.809 100.724 191.676 101.024 191.212C101.324 190.748 101.191 190.129 100.727 189.829L99.6409 191.509ZM96.7142 187.126C96.2624 186.808 95.6386 186.917 95.3211 187.369C95.0035 187.821 95.1123 188.444 95.5642 188.762L96.7142 187.126ZM91.6002 185.847C92.0377 186.184 92.6656 186.102 93.0026 185.665C93.3397 185.227 93.2583 184.6 92.8208 184.262L91.6002 185.847ZM89.0696 181.225C88.6493 180.866 88.0182 180.916 87.6599 181.337C87.3015 181.757 87.3518 182.388 87.772 182.747L89.0696 181.225ZM84.1056 179.444C84.5054 179.825 85.1384 179.81 85.5195 179.41C85.9005 179.01 85.8854 178.377 85.4856 177.996L84.1056 179.444ZM82.1003 174.568C81.7247 174.163 81.092 174.14 80.6871 174.515C80.2822 174.891 80.2585 175.524 80.634 175.928L82.1003 174.568ZM77.3929 172.193C77.7405 172.623 78.3702 172.689 78.7994 172.341C79.2286 171.994 79.2948 171.364 78.9473 170.935L77.3929 172.193ZM76.0595 167.095C75.7439 166.642 75.1207 166.531 74.6674 166.846C74.2142 167.162 74.1026 167.785 74.4182 168.238L76.0595 167.095ZM71.7449 164.07C72.0249 164.546 72.6378 164.705 73.1138 164.425C73.5898 164.145 73.7487 163.532 73.4686 163.056L71.7449 164.07ZM71.2019 158.831C70.9604 158.334 70.3619 158.128 69.8652 158.369C69.3686 158.611 69.1618 159.209 69.4034 159.706L71.2019 158.831ZM67.4169 155.169C67.618 155.683 68.198 155.937 68.7123 155.736C69.2267 155.535 69.4807 154.955 69.2796 154.441L67.4169 155.169ZM67.6532 149.834C67.4794 149.31 66.9136 149.026 66.3894 149.199C65.8651 149.373 65.581 149.939 65.7547 150.463L67.6532 149.834ZM64.2613 145.733C64.4196 146.262 64.9768 146.563 65.5059 146.404C66.035 146.246 66.3357 145.689 66.1774 145.16L64.2613 145.733ZM64.856 140.447C64.7168 139.912 64.1706 139.592 63.6362 139.731C63.1018 139.871 62.7814 140.417 62.9207 140.951L64.856 140.447ZM61.7669 136.114C61.8832 136.654 62.4151 136.997 62.955 136.881C63.4949 136.765 63.8384 136.233 63.7221 135.693L61.7669 136.114ZM62.8129 130.898C62.7242 130.353 62.2104 129.983 61.6652 130.072C61.1201 130.161 60.7502 130.675 60.8389 131.22L62.8129 130.898ZM60.1798 126.274C60.2362 126.823 60.7272 127.223 61.2766 127.167C61.826 127.111 62.2257 126.619 62.1694 126.07L60.1798 126.274ZM61.8344 121.22C61.8155 120.668 61.3527 120.236 60.8007 120.255C60.2487 120.274 59.8166 120.736 59.8356 121.288L61.8344 121.22ZM59.8513 116.284C59.8282 116.835 60.2568 117.301 60.8086 117.325C61.3604 117.348 61.8264 116.919 61.8495 116.367L59.8513 116.284ZM62.2508 111.54C62.3197 110.992 61.9313 110.492 61.3833 110.423C60.8353 110.354 60.3353 110.742 60.2664 111.29L62.2508 111.54ZM61.1087 106.347C60.9919 106.887 61.3348 107.419 61.8746 107.536C62.4144 107.653 62.9467 107.31 63.0635 106.77L61.1087 106.347ZM64.2976 102.094C64.4625 101.567 64.1688 101.006 63.6417 100.841C63.1146 100.676 62.5537 100.97 62.3888 101.497L64.2976 102.094ZM64.0978 96.7827C63.8868 97.2931 64.1295 97.8779 64.6399 98.0889C65.1503 98.2999 65.7351 98.0572 65.9461 97.5468L64.0978 96.7827ZM67.9858 93.1569C68.2393 92.6663 68.0472 92.063 67.5565 91.8094C67.0659 91.5558 66.4626 91.748 66.209 92.2386L67.9858 93.1569ZM68.6834 87.8877C68.3919 88.3568 68.5358 88.9734 69.0049 89.2649C69.474 89.5564 70.0906 89.4125 70.3821 88.9434L68.6834 87.8877ZM73.0955 84.9144C73.4201 84.4676 73.3209 83.8422 72.874 83.5177C72.4271 83.1931 71.8018 83.2923 71.4773 83.7392L73.0955 84.9144ZM74.549 79.7902C74.1963 80.2151 74.2548 80.8456 74.6797 81.1983C75.1047 81.5511 75.7351 81.4926 76.0879 81.0676L74.549 79.7902ZM79.3265 77.3924C79.7032 76.9885 79.6811 76.3557 79.2773 75.979C78.8734 75.6023 78.2406 75.6243 77.8639 76.0282L79.3265 77.3924ZM81.3352 72.4938C80.9386 72.8782 80.9286 73.5112 81.3129 73.9079C81.6973 74.3045 82.3303 74.3145 82.727 73.9302L81.3352 72.4938ZM86.2967 70.6259C86.7102 70.2597 86.7484 69.6277 86.3823 69.2143C86.0161 68.8008 85.3841 68.7625 84.9706 69.1287L86.2967 70.6259ZM88.7672 65.9012C88.3395 66.2507 88.2761 66.8806 88.6255 67.3083C88.9749 67.736 89.6049 67.7994 90.0326 67.45L88.7672 65.9012ZM93.9022 64.4033C94.342 64.0692 94.4277 63.4419 94.0936 63.0021C93.7596 62.5623 93.1322 62.4766 92.6924 62.8107L93.9022 64.4033ZM96.6524 59.9002C96.2024 60.2204 96.0973 60.8448 96.4176 61.2948C96.7379 61.7447 97.3623 61.8498 97.8122 61.5295L96.6524 59.9002ZM101.867 58.7295C102.326 58.422 102.449 57.8008 102.141 57.3421C101.834 56.8833 101.213 56.7607 100.754 57.0682L101.867 58.7295ZM104.899 54.3653C104.433 54.6612 104.295 55.2791 104.591 55.7454C104.887 56.2117 105.505 56.3498 105.971 56.0539L104.899 54.3653ZM110.131 53.4798C110.604 53.1944 110.756 52.5798 110.471 52.1069C110.185 51.6341 109.571 51.4821 109.098 51.7675L110.131 53.4798ZM113.398 49.2331C112.919 49.5087 112.755 50.1202 113.03 50.5987C113.306 51.0773 113.917 51.2419 114.396 50.9662L113.398 49.2331ZM118.635 48.5773C119.118 48.3104 119.294 47.7021 119.027 47.2186C118.76 46.735 118.152 46.5593 117.668 46.8262L118.635 48.5773ZM122.072 44.4457C121.584 44.7043 121.398 45.3095 121.656 45.7976C121.915 46.2856 122.52 46.4716 123.008 46.213L122.072 44.4457ZM127.317 43.9725C127.809 43.7213 128.004 43.119 127.753 42.6271C127.502 42.1352 126.899 41.9401 126.407 42.1912L127.317 43.9725ZM130.874 39.9515C130.378 40.1956 130.175 40.795 130.419 41.2905C130.663 41.7859 131.262 41.9896 131.758 41.7455L130.874 39.9515ZM136.141 39.6212C136.639 39.3835 136.851 38.7867 136.613 38.2882C136.375 37.7897 135.778 37.5782 135.28 37.816L136.141 39.6212ZM139.777 35.7049C139.276 35.9366 139.057 36.5308 139.289 37.0322C139.521 37.5335 140.115 37.7521 140.616 37.5204L139.777 35.7049ZM145.086 35.4847C145.59 35.2585 145.815 34.6667 145.589 34.1629C145.363 33.659 144.771 33.4339 144.267 33.6601L145.086 35.4847ZM148.771 31.6667C148.264 31.8877 148.033 32.4771 148.254 32.9833C148.475 33.4894 149.065 33.7206 149.571 33.4996L148.771 31.6667ZM154.145 31.5291C154.653 31.313 154.89 30.7258 154.674 30.2176C154.458 29.7093 153.871 29.4724 153.362 29.6885L154.145 31.5291ZM157.853 27.8029C157.343 28.0145 157.101 28.5996 157.312 29.1098C157.524 29.6199 158.109 29.8619 158.619 29.6503L157.853 27.8029ZM163.223 27.7635C163.735 27.5562 163.982 26.9732 163.775 26.4613C163.567 25.9494 162.984 25.7025 162.472 25.9098L163.223 27.7635ZM167.031 24.0845C166.517 24.2878 166.266 24.8689 166.469 25.3824C166.673 25.8959 167.254 26.1473 167.767 25.944L167.031 24.0845ZM172.333 24.1553C172.848 23.9558 173.104 23.3765 172.905 22.8615C172.705 22.3466 172.126 22.0909 171.611 22.2905L172.333 24.1553ZM176.308 20.489C175.792 20.685 175.532 21.2624 175.728 21.7788C175.924 22.2951 176.502 22.5549 177.018 22.3589L176.308 20.489ZM181.544 20.6578C182.062 20.4652 182.325 19.8894 182.132 19.3718C181.94 18.8542 181.364 18.5908 180.846 18.7835L181.544 20.6578ZM185.484 17.0735C184.965 17.263 184.698 17.8371 184.888 18.3559C185.077 18.8746 185.651 19.1416 186.17 18.9521L185.484 17.0735ZM190.871 17.2508C191.391 17.0644 191.661 16.4918 191.475 15.9719C191.288 15.4521 190.716 15.1818 190.196 15.3682L190.871 17.2508ZM194.768 13.7423C194.248 13.926 193.974 14.4971 194.158 15.0179C194.341 15.5388 194.913 15.8122 195.433 15.6285L194.768 13.7423ZM200.094 13.9992C200.615 13.8183 200.892 13.2486 200.711 12.7268C200.53 12.205 199.96 11.9287 199.438 12.1096L200.094 13.9992ZM204.181 10.4786C203.659 10.6569 203.379 11.2252 203.558 11.7479C203.736 12.2706 204.304 12.5498 204.827 12.3715L204.181 10.4786ZM209.411 10.8196C209.935 10.6437 210.216 10.0767 210.041 9.55321C209.865 9.02968 209.298 8.74788 208.774 8.92377L209.411 10.8196ZM213.456 7.36237C212.932 7.53593 212.648 8.10166 212.821 8.62597C212.995 9.15027 213.56 9.43461 214.085 9.26105L213.456 7.36237ZM218.849 7.69564C219.374 7.52435 219.66 6.95986 219.489 6.43481C219.318 5.90976 218.753 5.62297 218.228 5.79426L218.849 7.69564ZM222.853 4.29571C222.328 4.4649 222.039 5.02824 222.208 5.55398C222.377 6.07971 222.94 6.36874 223.466 6.19956L222.853 4.29571ZM228.137 4.70651C228.663 4.53935 228.954 3.97712 228.787 3.45074C228.62 2.92436 228.058 2.63316 227.531 2.80031L228.137 4.70651ZM232.292 1.29852C231.765 1.4637 231.471 2.02483 231.636 2.55184C231.802 3.07884 232.363 3.37215 232.89 3.20697L232.292 1.29852ZM1.80495 964.593C2.28926 963.936 2.784 963.257 3.28861 962.556L1.6656 961.388C1.16517 962.083 0.674797 962.756 0.195049 963.407L1.80495 964.593ZM6.24724 958.361C7.18203 957.009 8.14337 955.594 9.12836 954.119L7.46517 953.008C6.48592 954.475 5.5306 955.88 4.60214 957.223L6.24724 958.361ZM11.9338 949.852C12.8348 948.461 13.7521 947.025 14.6836 945.545L12.9911 944.48C12.0641 945.952 11.1514 947.381 10.2551 948.765L11.9338 949.852ZM17.376 941.212C18.2459 939.793 19.1261 938.34 20.015 936.853L18.2984 935.826C17.4133 937.307 16.537 938.754 15.671 940.166L17.376 941.212ZM22.6071 932.464C23.4504 931.018 24.3002 929.544 25.1551 928.044L23.4173 927.054C22.5658 928.549 21.7195 930.016 20.8796 931.456L22.6071 932.464ZM27.6612 923.592C28.4798 922.12 29.3019 920.626 30.1267 919.108L28.3694 918.153C27.5478 919.665 26.7288 921.154 25.9135 922.619L27.6612 923.592ZM32.5438 914.608C33.3312 913.125 34.1201 911.621 34.9095 910.099L33.1341 909.178C32.3476 910.695 31.5617 912.192 30.7773 913.67L32.5438 914.608ZM37.2376 905.556C38.0014 904.048 38.7649 902.523 39.5274 900.981L37.7345 900.094C36.9749 901.631 36.2143 903.15 35.4534 904.653L37.2376 905.556ZM41.7666 896.396C42.4996 894.878 43.2308 893.344 43.9597 891.795L42.1501 890.943C41.424 892.486 40.6956 894.014 39.9654 895.527L41.7666 896.396ZM46.1139 887.16C46.8201 885.622 47.5233 884.07 48.2229 882.505L46.3971 881.689C45.7002 883.247 44.9997 884.793 44.2962 886.326L46.1139 887.16ZM50.2797 877.843C50.9559 876.29 51.628 874.725 52.2954 873.148L50.4537 872.369C49.7889 873.939 49.1194 875.498 48.4459 877.045L50.2797 877.843ZM54.2644 868.432C54.9081 866.867 55.5468 865.293 56.1798 863.708L54.3226 862.966C53.6921 864.544 53.056 866.113 52.4148 867.671L54.2644 868.432ZM58.0507 858.953C58.6634 857.371 59.2702 855.78 59.8703 854.18L57.9977 853.478C57.4001 855.071 56.7959 856.655 56.1857 858.231L58.0507 858.953ZM61.636 849.394C62.2153 847.797 62.7877 846.192 63.3524 844.58L61.4648 843.919C60.9025 845.524 60.3327 847.122 59.7559 848.712L61.636 849.394ZM65.0123 839.753C65.5553 838.144 66.0903 836.528 66.617 834.906L64.7147 834.288C64.1905 835.903 63.6578 837.512 63.1174 839.113L65.0123 839.753ZM68.1666 830.034C68.6716 828.413 69.1677 826.786 69.6546 825.153L67.738 824.581C67.2535 826.206 66.7597 827.826 66.2571 829.439L68.1666 830.034ZM71.0839 820.248C71.5495 818.612 72.0055 816.971 72.4512 815.325L70.5208 814.802C70.0773 816.44 69.6236 818.073 69.1603 819.701L71.0839 820.248ZM73.7535 810.387C74.1766 808.739 74.5892 807.086 74.9906 805.429L73.0469 804.958C72.6476 806.606 72.2372 808.25 71.8163 809.89L73.7535 810.387ZM76.159 800.456C76.5367 798.796 76.9029 797.133 77.2572 795.466L75.3009 795.05C74.9487 796.707 74.5845 798.362 74.2089 800.012L76.159 800.456ZM78.2828 790.459C78.6121 788.788 78.929 787.115 79.2329 785.438L77.265 785.081C76.9629 786.748 76.6479 788.411 76.3205 790.072L78.2828 790.459ZM80.1056 780.402C80.3832 778.721 80.6474 777.038 80.8977 775.353L78.9194 775.059C78.6707 776.733 78.4082 778.406 78.1323 780.076L80.1056 780.402ZM81.6068 770.29C81.829 768.6 82.0368 766.909 82.2297 765.217L80.2426 764.99C80.051 766.671 79.8446 768.351 79.6239 770.029L81.6068 770.29ZM82.7638 760.131C82.8452 759.283 82.9227 758.435 82.9963 757.586L81.0037 757.414C80.9307 758.256 80.8537 759.098 80.7729 759.94L82.7638 760.131ZM82.9963 757.586C83.0706 756.729 83.1421 755.879 83.2106 755.037L81.2172 754.875C81.1489 755.714 81.0778 756.56 81.0037 757.414L82.9963 757.586ZM83.5877 750.066C83.7062 748.378 83.8127 746.72 83.9077 745.091L81.9111 744.974C81.8166 746.596 81.7105 748.246 81.5926 749.925L83.5877 750.066ZM84.1659 740.122C84.2433 738.424 84.3076 736.757 84.3595 735.12L82.3605 735.056C82.3089 736.684 82.2449 738.342 82.168 740.031L84.1659 740.122ZM84.4806 730.181C84.5099 728.469 84.5253 726.79 84.5273 725.143L82.5273 725.141C82.5253 726.777 82.5101 728.445 82.4809 730.147L84.4806 730.181ZM84.4925 720.183C84.4662 718.485 84.4255 716.822 84.3711 715.19L82.3722 715.256C82.4262 716.876 82.4666 718.528 82.4927 720.214L84.4925 720.183ZM84.1574 710.184C84.0693 708.497 83.9665 706.844 83.85 705.221L81.8551 705.364C81.9707 706.974 82.0727 708.614 82.1601 710.288L84.1574 710.184ZM83.4436 700.258C83.2876 698.564 83.1168 696.902 82.9325 695.269L80.9452 695.493C81.1279 697.113 81.2973 698.761 81.452 700.442L83.4436 700.258ZM82.3223 690.313C82.0995 688.642 81.8631 686.999 81.615 685.379L79.638 685.682C79.8843 687.29 80.1188 688.92 80.3398 690.577L82.3223 690.313ZM80.8154 680.463C80.5311 678.808 80.2355 677.173 79.9307 675.554L77.9652 675.924C78.2683 677.533 78.5619 679.158 78.8443 680.802L80.8154 680.463ZM78.9736 670.655C78.6433 669.02 78.3053 667.396 77.9615 665.777L76.0051 666.192C76.3478 667.806 76.6845 669.424 77.0132 671.051L78.9736 670.655ZM76.9117 660.913C76.5583 659.297 76.2011 657.68 75.8423 656.057L73.8894 656.489C74.2483 658.112 74.605 659.727 74.9579 661.34L76.9117 660.913ZM74.7715 651.203C74.419 649.596 74.0667 647.978 73.7166 646.343L71.7609 646.762C72.112 648.401 72.465 650.023 72.818 651.632L74.7715 651.203ZM72.6946 641.479C72.3665 639.884 72.042 638.268 71.7227 636.626L69.7595 637.008C70.0804 638.657 70.4063 640.28 70.7356 641.882L72.6946 641.479ZM70.8069 631.761C70.516 630.16 70.2312 628.532 69.9537 626.874L67.9811 627.204C68.2602 628.872 68.5467 630.509 68.8391 632.119L70.8069 631.761ZM69.1671 621.951C68.9241 620.354 68.6886 618.727 68.4617 617.068L66.4802 617.339C66.7085 619.009 66.9454 620.645 67.1898 622.251L69.1671 621.951ZM67.8289 612.165C67.6322 610.545 67.444 608.893 67.2652 607.207L65.2763 607.418C65.4562 609.114 65.6456 610.776 65.8435 612.406L67.8289 612.165ZM66.7806 602.296C66.6334 600.684 66.4947 599.041 66.3655 597.365L64.3714 597.518C64.5014 599.204 64.6408 600.856 64.7889 602.478L66.7806 602.296ZM66.015 592.372C65.9135 590.769 65.8204 589.138 65.7364 587.474L63.739 587.575C63.8234 589.247 63.9169 590.887 64.019 592.498L66.015 592.372ZM65.5147 582.461C65.4537 580.856 65.4009 579.223 65.3569 577.561L63.3576 577.614C63.4018 579.284 63.4548 580.924 63.5162 582.537L65.5147 582.461ZM65.2523 572.549C65.2276 570.94 65.2109 569.304 65.2026 567.639L63.2026 567.649C63.211 569.32 63.2278 570.964 63.2526 572.58L65.2523 572.549ZM65.2027 562.613C65.2107 561.007 65.2263 559.375 65.2497 557.717L63.2499 557.689C63.2264 559.353 63.2108 560.99 63.2027 562.603L65.2027 562.613ZM65.344 552.666C65.381 551.064 65.4252 549.439 65.4768 547.79L63.4777 547.728C63.426 549.382 63.3817 551.013 63.3446 552.619L65.344 552.666ZM65.6533 542.785C65.717 541.161 65.7876 539.514 65.8655 537.844L63.8677 537.751C63.7896 539.426 63.7187 541.078 63.6548 542.707L65.6533 542.785ZM66.1133 532.904C66.2024 531.244 66.2983 529.562 66.4014 527.857L64.405 527.737C64.3017 529.446 64.2055 531.132 64.1162 532.796L66.1133 532.904ZM66.7106 522.995C66.8201 521.353 66.9359 519.691 67.0584 518.008L65.0637 517.863C64.9409 519.55 64.8248 521.216 64.715 522.862L66.7106 522.995ZM67.4352 513.028C67.5617 511.418 67.694 509.788 67.8323 508.14L65.8393 507.973C65.7007 509.625 65.5681 511.257 65.4413 512.872L67.4352 513.028ZM68.2655 503.137C68.3407 502.293 68.4175 501.445 68.4958 500.591L66.5042 500.409C66.4257 501.264 66.3488 502.114 66.2734 502.959L68.2655 503.137ZM68.4955 500.595C68.5766 499.745 68.6673 498.901 68.7674 498.063L66.7814 497.826C66.6796 498.68 66.5872 499.539 66.5045 500.405L68.4955 500.595ZM69.4783 493.099C69.7593 491.423 70.0783 489.769 70.4339 488.139L68.4798 487.713C68.1173 489.375 67.7922 491.06 67.5059 492.769L69.4783 493.099ZM71.6236 483.263C72.0643 481.632 72.5421 480.026 73.0556 478.443L71.1532 477.826C70.6296 479.44 70.1422 481.078 69.6929 482.741L71.6236 483.263ZM74.7293 473.691C75.3282 472.117 75.9628 470.568 76.6313 469.043L74.7996 468.24C74.1179 469.795 73.4708 471.375 72.86 472.98L74.7293 473.691ZM78.7633 464.487C79.5147 462.978 80.2998 461.494 81.1167 460.034L79.3714 459.057C78.539 460.545 77.7389 462.057 76.973 463.595L78.7633 464.487ZM83.6755 455.703C84.5646 454.276 85.4843 452.872 86.4328 451.493L84.7848 450.36C83.8195 451.764 82.8832 453.192 81.9778 454.646L83.6755 455.703ZM89.3793 447.404C90.392 446.062 91.432 444.743 92.4974 443.447L90.9527 442.177C89.8699 443.493 88.8125 444.834 87.7826 446.2L89.3793 447.404ZM95.7759 439.622C96.8965 438.366 98.0407 437.133 99.2067 435.923L97.7666 434.536C96.5833 435.763 95.4216 437.015 94.2836 438.29L95.7759 439.622ZM102.774 432.356C103.985 431.187 105.216 430.041 106.466 428.917L105.128 427.431C103.862 428.57 102.614 429.731 101.385 430.916L102.774 432.356ZM110.274 425.603C111.564 424.517 112.869 423.453 114.189 422.41L112.949 420.841C111.614 421.896 110.292 422.973 108.986 424.073L110.274 425.603ZM118.199 419.337C119.552 418.331 120.918 417.346 122.293 416.381L121.145 414.744C119.755 415.718 118.374 416.714 117.005 417.732L118.199 419.337ZM126.475 413.532C127.885 412.598 129.303 411.684 130.726 410.791L129.664 409.097C128.226 409.999 126.794 410.921 125.37 411.865L126.475 413.532ZM135.039 408.157C136.495 407.291 137.955 406.445 139.416 405.619L138.432 403.878C136.958 404.711 135.485 405.564 134.016 406.439L135.039 408.157ZM143.854 403.173C145.35 402.368 146.845 401.585 148.336 400.821L147.424 399.04C145.922 399.81 144.415 400.6 142.907 401.411L143.854 403.173ZM152.855 398.559C154.387 397.811 155.912 397.083 157.428 396.375L156.581 394.563C155.055 395.276 153.519 396.009 151.977 396.762L152.855 398.559ZM162.044 394.267C163.607 393.569 165.156 392.893 166.69 392.236L165.903 390.398C164.36 391.058 162.801 391.739 161.229 392.441L162.044 394.267ZM171.36 390.279C172.947 389.628 174.513 388.998 176.053 388.391L175.319 386.53C173.77 387.141 172.196 387.774 170.601 388.429L171.36 390.279ZM180.768 386.564C182.388 385.949 183.973 385.357 185.519 384.789L184.83 382.912C183.277 383.482 181.684 384.076 180.057 384.695L180.768 386.564ZM190.29 383.063C191.941 382.474 193.536 381.914 195.068 381.38L194.41 379.492C192.875 380.026 191.275 380.588 189.619 381.179L190.29 383.063ZM199.893 379.712C201.616 379.119 203.233 378.564 204.725 378.045L204.068 376.156C202.58 376.673 200.968 377.227 199.242 377.821L199.893 379.712ZM209.485 376.348C210.355 376.025 211.154 375.718 211.875 375.427L211.125 373.573C210.428 373.855 209.648 374.154 208.79 374.472L209.485 376.348ZM211.875 375.427C212.646 375.115 213.423 374.773 214.201 374.399L213.336 372.596C212.595 372.952 211.857 373.277 211.125 373.573L211.875 375.427ZM218.64 371.93C220.03 371.045 221.408 370.057 222.753 368.965L221.493 367.412C220.208 368.455 218.893 369.398 217.566 370.243L218.64 371.93ZM226.502 365.549C227.662 364.364 228.779 363.089 229.84 361.724L228.26 360.497C227.248 361.801 226.18 363.018 225.073 364.15L226.502 365.549ZM232.719 357.542C233.577 356.13 234.375 354.64 235.101 353.072L233.286 352.231C232.592 353.731 231.829 355.155 231.01 356.504L232.719 357.542ZM236.977 348.355C237.501 346.797 237.957 345.173 238.336 343.485L236.385 343.047C236.021 344.668 235.584 346.225 235.082 347.718L236.977 348.355ZM239.201 338.507C239.404 336.878 239.539 335.197 239.599 333.463L237.601 333.393C237.542 335.069 237.412 336.69 237.216 338.259L239.201 338.507ZM239.568 328.414C239.493 326.788 239.355 325.12 239.151 323.409L237.165 323.646C237.364 325.31 237.497 326.93 237.57 328.507L239.568 328.414ZM238.389 318.445C238.09 316.845 237.734 315.21 237.32 313.541L235.379 314.023C235.784 315.655 236.131 317.251 236.423 318.812L238.389 318.445ZM235.979 308.704C235.503 307.144 234.976 305.555 234.397 303.938L232.514 304.612C233.083 306.2 233.599 307.759 234.067 309.288L235.979 308.704ZM232.609 299.269C231.997 297.768 231.342 296.244 230.641 294.697L228.819 295.522C229.51 297.046 230.155 298.547 230.756 300.023L232.609 299.269ZM228.503 290.191C227.777 288.728 227.012 287.245 226.206 285.742L224.443 286.687C225.24 288.172 225.995 289.636 226.711 291.08L228.503 290.191ZM223.77 281.359C222.963 279.956 222.122 278.537 221.245 277.101L219.538 278.144C220.406 279.565 221.239 280.969 222.036 282.356L223.77 281.359ZM218.588 272.871C217.7 271.494 216.779 270.102 215.825 268.696L214.17 269.818C215.115 271.212 216.028 272.592 216.908 273.956L218.588 272.871ZM213.006 264.632C212.054 263.289 211.072 261.933 210.061 260.564L208.452 261.753C209.456 263.112 210.43 264.457 211.375 265.789L213.006 264.632ZM207.086 256.616C206.088 255.316 205.063 254.004 204.011 252.68L202.446 253.925C203.491 255.24 204.509 256.543 205.5 257.834L207.086 256.616ZM200.888 248.816C200.354 248.166 199.814 247.514 199.268 246.859L197.732 248.141C198.275 248.792 198.812 249.44 199.342 250.085L200.888 248.816ZM199.341 246.959C198.892 246.262 198.421 245.578 197.928 244.905L196.315 246.087C196.785 246.728 197.233 247.38 197.659 248.041L199.341 246.959ZM194.762 241.054C193.658 239.847 192.481 238.679 191.237 237.546L189.89 239.024C191.092 240.12 192.226 241.245 193.286 242.404L194.762 241.054ZM187.448 234.351C186.173 233.352 184.846 232.38 183.471 231.431L182.335 233.077C183.679 234.005 184.974 234.953 186.215 235.925L187.448 234.351ZM179.348 228.736C177.974 227.883 176.563 227.048 175.118 226.227L174.13 227.966C175.555 228.775 176.944 229.597 178.293 230.435L179.348 228.736ZM170.809 223.871C169.378 223.117 167.921 222.373 166.441 221.638L165.551 223.429C167.018 224.158 168.461 224.894 169.875 225.64L170.809 223.871ZM162.032 219.501C160.571 218.81 159.092 218.124 157.598 217.441L156.767 219.261C158.254 219.94 159.724 220.622 161.176 221.309L162.032 219.501ZM153.143 215.435C151.664 214.777 150.173 214.12 148.674 213.463L147.872 215.295C149.368 215.951 150.855 216.606 152.329 217.262L153.143 215.435ZM144.2 211.511C142.714 210.863 141.222 210.214 139.727 209.561L138.927 211.394C140.423 212.048 141.916 212.697 143.402 213.344L144.2 211.511ZM135.262 207.601C133.778 206.945 132.293 206.284 130.812 205.616L129.99 207.439C131.477 208.11 132.966 208.773 134.454 209.43L135.262 207.601ZM126.384 203.592C124.911 202.909 123.444 202.217 121.984 201.516L121.117 203.318C122.586 204.024 124.062 204.72 125.542 205.407L126.384 203.592ZM117.619 199.372C116.168 198.642 114.727 197.901 113.299 197.146L112.364 198.914C113.805 199.676 115.258 200.424 116.722 201.159L117.619 199.372ZM109.035 194.824C107.619 194.029 106.22 193.218 104.84 192.39L103.811 194.105C105.208 194.944 106.625 195.764 108.056 196.568L109.035 194.824ZM100.727 189.829C99.3652 188.949 98.0266 188.048 96.7142 187.126L95.5642 188.762C96.8989 189.7 98.2588 190.615 99.6409 191.509L100.727 189.829ZM92.8208 184.262C91.5389 183.275 90.2875 182.263 89.0696 181.225L87.772 182.747C89.0164 183.807 90.2936 184.84 91.6002 185.847L92.8208 184.262ZM85.4856 177.996C84.3182 176.884 83.1887 175.742 82.1003 174.568L80.634 175.928C81.7516 177.133 82.9099 178.304 84.1056 179.444L85.4856 177.996ZM78.9473 170.935C77.9389 169.689 76.9752 168.41 76.0595 167.095L74.4182 168.238C75.3624 169.594 76.3552 170.912 77.3929 172.193L78.9473 170.935ZM73.4686 163.056C72.6624 161.686 71.9057 160.278 71.2019 158.831L69.4034 159.706C70.1307 161.201 70.9123 162.655 71.7449 164.07L73.4686 163.056ZM69.2796 154.441C68.988 153.695 68.7098 152.939 68.4452 152.173L66.5548 152.827C66.8281 153.618 67.1156 154.398 67.4169 155.169L69.2796 154.441ZM68.4452 152.173C68.1748 151.391 67.9106 150.611 67.6532 149.834L65.7547 150.463C66.015 151.248 66.2818 152.036 66.5548 152.827L68.4452 152.173ZM66.1774 145.16C65.7041 143.577 65.2625 142.007 64.856 140.447L62.9207 140.951C63.3336 142.536 63.7817 144.129 64.2613 145.733L66.1774 145.16ZM63.7221 135.693C63.3756 134.083 63.0713 132.486 62.8129 130.898L60.8389 131.22C61.103 132.843 61.4138 134.474 61.7669 136.114L63.7221 135.693ZM62.1694 126.07C62.0026 124.443 61.8895 122.826 61.8344 121.22L59.8356 121.288C59.8923 122.943 60.0087 124.604 60.1798 126.274L62.1694 126.07ZM61.8495 116.367C61.9173 114.75 62.0496 113.141 62.2508 111.54L60.2664 111.29C60.058 112.948 59.9213 114.612 59.8513 116.284L61.8495 116.367ZM63.0635 106.77C63.4019 105.206 63.8118 103.647 64.2976 102.094L62.3888 101.497C61.8849 103.108 61.4597 104.725 61.1087 106.347L63.0635 106.77ZM65.9461 97.5468C66.5522 96.0809 67.2307 94.6178 67.9858 93.1569L66.209 92.2386C65.4283 93.7493 64.7258 95.2637 64.0978 96.7827L65.9461 97.5468ZM70.3821 88.9434C71.2171 87.5997 72.1206 86.257 73.0955 84.9144L71.4773 83.7392C70.4749 85.1195 69.5445 86.5021 68.6834 87.8877L70.3821 88.9434ZM76.0879 81.0676C77.1045 79.843 78.1832 78.618 79.3265 77.3924L77.8639 76.0282C76.6954 77.281 75.5911 78.5348 74.549 79.7902L76.0879 81.0676ZM82.727 73.9302C83.8627 72.8297 85.052 71.7284 86.2967 70.6259L84.9706 69.1287C83.7045 70.2503 82.4932 71.3718 81.3352 72.4938L82.727 73.9302ZM90.0326 67.45C91.2741 66.4357 92.5635 65.4202 93.9022 64.4033L92.6924 62.8107C91.3356 63.8413 90.0276 64.8714 88.7672 65.9012L90.0326 67.45ZM97.8122 61.5295C99.1215 60.5976 100.473 59.6643 101.867 58.7295L100.754 57.0682C99.3443 58.013 97.9775 58.957 96.6524 59.9002L97.8122 61.5295ZM105.971 56.0539C107.321 55.1973 108.707 54.3393 110.131 53.4798L109.098 51.7675C107.661 52.6345 106.262 53.5004 104.899 54.3653L105.971 56.0539ZM114.396 50.9662C115.776 50.1713 117.189 49.375 118.635 48.5773L117.668 46.8262C116.212 47.6297 114.789 48.4319 113.398 49.2331L114.396 50.9662ZM123.008 46.213C124.415 45.4676 125.851 44.7207 127.317 43.9725L126.407 42.1912C124.933 42.9439 123.488 43.6954 122.072 44.4457L123.008 46.213ZM131.758 41.7455C133.192 41.0388 134.653 40.3307 136.141 39.6212L135.28 37.816C133.784 38.5291 132.316 39.2409 130.874 39.9515L131.758 41.7455ZM140.616 37.5204C142.081 36.8432 143.571 36.1646 145.086 35.4847L144.267 33.6601C142.746 34.343 141.249 35.0245 139.777 35.7049L140.616 37.5204ZM149.571 33.4996C151.072 32.8441 152.597 32.1873 154.145 31.5291L153.362 29.6885C151.808 30.3492 150.278 31.0086 148.771 31.6667L149.571 33.4996ZM158.619 29.6503C160.132 29.0227 161.667 28.3938 163.223 27.7635L162.472 25.9098C160.911 26.5421 159.371 27.1731 157.853 27.8029L158.619 29.6503ZM167.767 25.944C169.27 25.349 170.792 24.7528 172.333 24.1553L171.611 22.2905C170.065 22.8897 168.538 23.4877 167.031 24.0845L167.767 25.944ZM177.018 22.3589C178.509 21.7931 180.018 21.2261 181.544 20.6578L180.846 18.7835C179.316 19.3532 177.803 19.9217 176.308 20.489L177.018 22.3589ZM186.17 18.9521C187.719 18.3862 189.286 17.8191 190.871 17.2508L190.196 15.3682C188.607 15.9378 187.037 16.5063 185.484 17.0735L186.17 18.9521ZM195.433 15.6285C196.97 15.0866 198.524 14.5435 200.094 13.9992L199.438 12.1096C197.865 12.655 196.309 13.1992 194.768 13.7423L195.433 15.6285ZM204.827 12.3715C206.34 11.8553 207.868 11.338 209.411 10.8196L208.774 8.92377C207.228 9.44313 205.697 9.9614 204.181 10.4786L204.827 12.3715ZM214.085 9.26105C215.658 8.7404 217.246 8.2186 218.849 7.69564L218.228 5.79426C216.623 6.3181 215.032 6.8408 213.456 7.36237L214.085 9.26105ZM223.466 6.19956C225.009 5.70294 226.566 5.20526 228.137 4.70651L227.531 2.80031C225.958 3.29984 224.399 3.7983 222.853 4.29571L223.466 6.19956ZM232.89 3.20697C233.689 2.95651 234.491 2.70578 235.297 2.45477L234.703 0.545229C233.896 0.7966 233.092 1.0477 232.292 1.29852L232.89 3.20697Z" fill="#A4B6E1"/>
</svg>
