<svg width="110" height="70" viewBox="0 0 110 70" fill="none" xmlns="http://www.w3.org/2000/svg">
<g clip-path="url(#clip0_130_491)">
<rect x="0.5" width="113" height="78" rx="5" fill="#F2F2F2"/>
<rect width="29" height="78" transform="translate(0.5)" fill="white"/>
<rect x="4.5" y="56" width="20" height="6" rx="3" fill="#405AF4"/>
<rect x="4.5" y="38" width="20" height="6" rx="3" fill="#CDCDCD"/>
<rect x="4.5" y="28" width="20" height="6" rx="3" fill="#CDCDCD"/>
<rect x="4.5" y="18" width="20" height="6" rx="3" fill="#CDCDCD"/>
<rect x="34.5" y="8" width="33" height="64" rx="5" fill="#DFDFDF"/>
<rect width="23" height="10" rx="3.90625" transform="matrix(1 0 0 -1 39.5 23)" fill="#CDCDCD"/>
<rect width="23" height="16" rx="3.90625" transform="matrix(1 0 0 -1 39.5 43)" fill="#CDCDCD"/>
<rect width="23" height="20" rx="3.90625" transform="matrix(1 0 0 -1 39.5 67)" fill="#CDCDCD"/>
<rect x="73.5" y="8" width="51" height="64" rx="5" fill="#DFDFDF"/>
<rect width="41" height="10" rx="3.90625" transform="matrix(1 0 0 -1 78.5 23)" fill="#CDCDCD"/>
<rect width="41" height="16" rx="3.90625" transform="matrix(1 0 0 -1 78.5 43)" fill="#CDCDCD"/>
<rect width="41" height="20" rx="3.90625" transform="matrix(1 0 0 -1 78.5 67)" fill="#CDCDCD"/>
</g>
<defs>
<clipPath id="clip0_130_491">
<rect x="0.5" width="113" height="78" rx="5" fill="white"/>
</clipPath>
</defs>
</svg>
