<svg width="109" height="70" viewBox="0 0 109 70" fill="none" xmlns="http://www.w3.org/2000/svg">
<g clip-path="url(#clip0_130_456)">
<rect width="113" height="78" rx="5" fill="#242424"/>
<rect width="29" height="78" fill="#161518"/>
<rect x="4" y="56" width="20" height="6" rx="3" fill="#405AF4"/>
<rect x="4" y="38" width="20" height="6" rx="3" fill="#404040"/>
<rect x="4" y="28" width="20" height="6" rx="3" fill="#404040"/>
<rect x="4" y="18" width="20" height="6" rx="3" fill="#404040"/>
<rect x="34" y="8" width="33" height="64" rx="5" fill="#303131"/>
<rect width="23" height="10" rx="3.90625" transform="matrix(1 0 0 -1 39 23)" fill="#404040"/>
<rect width="23" height="16" rx="3.90625" transform="matrix(1 0 0 -1 39 43)" fill="#404040"/>
<rect width="23" height="20" rx="3.90625" transform="matrix(1 0 0 -1 39 67)" fill="#404040"/>
<rect x="73" y="8" width="51" height="64" rx="5" fill="#303131"/>
<rect width="41" height="10" rx="3.90625" transform="matrix(1 0 0 -1 78 23)" fill="#404040"/>
<rect width="41" height="16" rx="3.90625" transform="matrix(1 0 0 -1 78 43)" fill="#404040"/>
<rect width="41" height="20" rx="3.90625" transform="matrix(1 0 0 -1 78 67)" fill="#404040"/>
</g>
<g clip-path="url(#clip1_130_456)">
<rect width="60" height="78" transform="translate(53)" fill="#F2F2F2"/>
<rect x="33.5" y="8" width="33" height="64" rx="5" fill="#DFDFDF"/>
<rect width="23" height="10" rx="3.90625" transform="matrix(1 0 0 -1 38.5 23)" fill="#CDCDCD"/>
<rect width="23" height="16" rx="3.90625" transform="matrix(1 0 0 -1 38.5 43)" fill="#CDCDCD"/>
<rect width="23" height="20" rx="3.90625" transform="matrix(1 0 0 -1 38.5 67)" fill="#CDCDCD"/>
<rect x="72.5" y="8" width="51" height="64" rx="5" fill="#DFDFDF"/>
<rect width="41" height="10" rx="3.90625" transform="matrix(1 0 0 -1 77.5 23)" fill="#CDCDCD"/>
<rect width="41" height="16" rx="3.90625" transform="matrix(1 0 0 -1 77.5 43)" fill="#CDCDCD"/>
<rect width="41" height="20" rx="3.90625" transform="matrix(1 0 0 -1 77.5 67)" fill="#CDCDCD"/>
</g>
<defs>
<clipPath id="clip0_130_456">
<rect width="113" height="78" rx="5" fill="white"/>
</clipPath>
<clipPath id="clip1_130_456">
<rect width="60" height="78" fill="white" transform="translate(53)"/>
</clipPath>
</defs>
</svg>
