<svg width="20" height="20" viewBox="0 0 20 20" fill="none" xmlns="http://www.w3.org/2000/svg">
<g clip-path="url(#clip0_90_247)">
<path d="M10 20C12.6522 20 15.1957 18.9464 17.0711 17.0711C18.9464 15.1957 20 12.6522 20 10C20 7.34784 18.9464 4.8043 17.0711 2.92893C15.1957 1.05357 12.6522 0 10 0C7.34784 0 4.8043 1.05357 2.92893 2.92893C1.05357 4.8043 0 7.34784 0 10C0 12.6522 1.05357 15.1957 2.92893 17.0711C4.8043 18.9464 7.34784 20 10 20V20ZM8.75 8.125C8.75 9.16 8.19 10 7.5 10C6.81 10 6.25 9.16 6.25 8.125C6.25 7.09 6.81 6.25 7.5 6.25C8.19 6.25 8.75 7.09 8.75 8.125ZM5.35625 11.9588C5.4998 11.8759 5.67039 11.8534 5.8305 11.8963C5.99061 11.9392 6.12712 12.044 6.21 12.1875C6.59389 12.8529 7.14632 13.4055 7.81166 13.7895C8.47701 14.1735 9.23178 14.3755 10 14.375C10.7682 14.3755 11.523 14.1735 12.1883 13.7895C12.8537 13.4055 13.4061 12.8529 13.79 12.1875C13.8307 12.1158 13.8852 12.053 13.9504 12.0025C14.0155 11.952 14.09 11.9148 14.1696 11.8932C14.2491 11.8716 14.3321 11.866 14.4139 11.8766C14.4956 11.8872 14.5744 11.9139 14.6458 11.9551C14.7172 11.9964 14.7797 12.0513 14.8298 12.1168C14.8799 12.1822 14.9165 12.257 14.9376 12.3367C14.9586 12.4163 14.9637 12.4994 14.9526 12.5811C14.9414 12.6627 14.9142 12.7414 14.8725 12.8125C14.3789 13.6679 13.6687 14.3783 12.8133 14.872C11.958 15.3657 10.9876 15.6254 10 15.625C9.01237 15.6254 8.04204 15.3657 7.18668 14.872C6.33132 14.3783 5.6211 13.6679 5.1275 12.8125C5.04462 12.669 5.02216 12.4984 5.06506 12.3383C5.10796 12.1781 5.2127 12.0416 5.35625 11.9588ZM12.5 10C11.81 10 11.25 9.16 11.25 8.125C11.25 7.09 11.81 6.25 12.5 6.25C13.19 6.25 13.75 7.09 13.75 8.125C13.75 9.16 13.19 10 12.5 10Z" fill="#A4B6E1"/>
</g>
<defs>
<clipPath id="clip0_90_247">
<rect width="20" height="20" fill="white"/>
</clipPath>
</defs>
</svg>
