<svg width="22" height="22" viewBox="0 0 22 22" fill="none" xmlns="http://www.w3.org/2000/svg">
<path d="M8.37357 19.0421V16.2392C8.37357 15.5237 8.95784 14.9437 9.67859 14.9437H12.3132C12.6594 14.9437 12.9913 15.0802 13.236 15.3232C13.4808 15.5661 13.6183 15.8956 13.6183 16.2392V19.0421C13.6161 19.3396 13.7336 19.6256 13.9447 19.8368C14.1558 20.0479 14.4431 20.1666 14.7427 20.1666H16.5402C17.3797 20.1687 18.1855 19.8392 18.7799 19.2507C19.3743 18.6621 19.7084 17.863 19.7084 17.0296V9.04454C19.7083 8.37134 19.4078 7.73277 18.8876 7.30087L12.7729 2.4528C11.7092 1.60277 10.1852 1.63021 9.1533 2.51798L3.17811 7.30087C2.63337 7.72004 2.30778 8.3605 2.29169 9.04454V17.0214C2.29169 18.7585 3.71012 20.1666 5.45985 20.1666H7.21629C7.83864 20.1666 8.34443 19.6681 8.34894 19.0503L8.37357 19.0421Z" fill="currentColor"/>
</svg>
