<svg width="18" height="18" viewBox="0 0 18 18" fill="none" xmlns="http://www.w3.org/2000/svg">
<g id="Component 1/Iconly/Bold/Image">
<g id="Image">
<path id="Image_2" fill-rule="evenodd" clip-rule="evenodd" d="M5.5899 16.5416H11.9093C14.3814 16.5416 16.0416 14.8075 16.0416 12.2273V6.27253C16.0416 3.69229 14.3814 1.95825 11.9101 1.95825H5.5899C3.11855 1.95825 1.45831 3.69229 1.45831 6.27253V12.2273C1.45831 14.8075 3.11855 16.5416 5.5899 16.5416ZM6.19705 8.52083C5.19179 8.52083 4.37497 7.7029 4.37497 6.69792C4.37497 5.69293 5.19179 4.875 6.19705 4.875C7.20158 4.875 8.01914 5.69293 8.01914 6.69792C8.01914 7.7029 7.20158 8.52083 6.19705 8.52083ZM14.4526 11.3894C14.6968 12.0155 14.57 12.768 14.3089 13.388C13.9995 14.1255 13.4071 14.6838 12.6606 14.9276C12.3292 15.036 11.9817 15.0834 11.6348 15.0834H5.48961C4.87809 15.0834 4.33696 14.9367 3.89336 14.6635C3.61546 14.4919 3.56634 14.0961 3.77237 13.8395C4.11699 13.4106 4.45721 12.9802 4.80037 12.546C5.45441 11.7152 5.89508 11.4744 6.38488 11.6859C6.58359 11.7732 6.78303 11.9041 6.98833 12.0426C7.53533 12.4143 8.29569 12.9252 9.29729 12.3707C9.9827 11.9868 10.3802 11.3283 10.7264 10.7549L10.7322 10.7453C10.7567 10.7052 10.7809 10.6651 10.8051 10.6251L10.8053 10.6247C10.9217 10.4322 11.0364 10.2423 11.1663 10.0673C11.3291 9.8483 11.9325 9.16353 12.7142 9.65115C13.212 9.95816 13.6307 10.3735 14.0787 10.8183C14.2495 10.9883 14.3713 11.1817 14.4526 11.3894Z" fill="#58B9FF"/>
</g>
</g>
</svg>
