<svg width="24" height="24" viewBox="0 0 24 24" fill="none" xmlns="http://www.w3.org/2000/svg">
<path fill-rule="evenodd" clip-rule="evenodd" d="M12.2151 8.68692C11.8272 8.62038 11.4282 8.69328 11.0889 8.89271C10.7495 9.09214 10.4917 9.40523 10.3611 9.77652C10.2084 10.2107 9.73263 10.4388 9.29848 10.2861C8.86432 10.1334 8.63617 9.65761 8.7889 9.22345C9.05013 8.48086 9.56574 7.85468 10.2444 7.45582C10.9231 7.05696 11.721 6.91116 12.4969 7.04424C13.2727 7.17732 13.9765 7.5807 14.4834 8.18293C14.9903 8.78499 15.2677 9.54696 15.2667 10.3339C15.2664 11.6093 14.3208 12.4515 13.6456 12.9017C13.2826 13.1437 12.9255 13.3217 12.6624 13.4386C12.5297 13.4976 12.418 13.5423 12.3374 13.573C12.2971 13.5884 12.2644 13.6003 12.2406 13.6087L12.2117 13.6189L12.2024 13.622L12.1992 13.6231L12.1979 13.6235L11.9333 12.8333L11.9992 13.031L12.0651 13.2286L12.1969 13.6239C11.7602 13.7694 11.2883 13.5335 11.1428 13.0968C10.9973 12.6605 11.2329 12.1889 11.669 12.043L11.6822 12.0384C11.6951 12.0338 11.7161 12.0262 11.7441 12.0155C11.8003 11.9941 11.8839 11.9607 11.9855 11.9156C12.1912 11.8241 12.4591 11.6896 12.7211 11.5149C13.2958 11.1318 13.6 10.7243 13.6 10.3333L13.6 10.3321C13.6006 9.93848 13.4619 9.55737 13.2084 9.25626C12.9549 8.95515 12.603 8.75346 12.2151 8.68692ZM20.3334 12.0001C20.3334 16.6025 16.6024 20.3334 12 20.3334C7.39765 20.3334 3.66669 16.6025 3.66669 12.0001C3.66669 7.39771 7.39765 3.66675 12 3.66675C16.6024 3.66675 20.3334 7.39771 20.3334 12.0001ZM12 15.3334C11.5398 15.3334 11.1667 15.7065 11.1667 16.1667C11.1667 16.627 11.5398 17.0001 12 17.0001H12.0083C12.4686 17.0001 12.8417 16.627 12.8417 16.1667C12.8417 15.7065 12.4686 15.3334 12.0083 15.3334H12Z" fill="white"/>
</svg>
