<svg width="24" height="24" viewBox="0 0 24 24" fill="none" xmlns="http://www.w3.org/2000/svg">
<path fill-rule="evenodd" clip-rule="evenodd" d="M20.4022 13.58C20.7599 13.77 21.0358 14.07 21.23 14.37C21.6081 14.99 21.5775 15.75 21.2096 16.42L20.4942 17.62C20.1161 18.26 19.4109 18.66 18.6853 18.66C18.3277 18.66 17.9291 18.56 17.6021 18.36C17.3364 18.19 17.0298 18.13 16.7027 18.13C15.691 18.13 14.8428 18.96 14.8121 19.95C14.8121 21.1 13.8719 22 12.6967 22H11.3068C10.1213 22 9.18113 21.1 9.18113 19.95C9.16069 18.96 8.31247 18.13 7.30073 18.13C6.96348 18.13 6.6569 18.19 6.40141 18.36C6.07438 18.56 5.6656 18.66 5.31813 18.66C4.58232 18.66 3.87717 18.26 3.49905 17.62L2.7939 16.42C2.41577 15.77 2.39533 14.99 2.77346 14.37C2.93697 14.07 3.24356 13.77 3.59102 13.58C3.87717 13.44 4.06112 13.21 4.23486 12.94C4.74584 12.08 4.43925 10.95 3.57059 10.44C2.55885 9.87 2.23182 8.6 2.81434 7.61L3.49905 6.43C4.09178 5.44 5.35901 5.09 6.38097 5.67C7.27007 6.15 8.42488 5.83 8.94608 4.98C9.10959 4.7 9.20157 4.4 9.18113 4.1C9.16069 3.71 9.27311 3.34 9.46728 3.04C9.8454 2.42 10.5301 2.02 11.2761 2H12.7171C13.4734 2 14.1581 2.42 14.5362 3.04C14.7201 3.34 14.8428 3.71 14.8121 4.1C14.7917 4.4 14.8837 4.7 15.0472 4.98C15.5684 5.83 16.7232 6.15 17.6225 5.67C18.6342 5.09 19.9117 5.44 20.4942 6.43L21.1789 7.61C21.7716 8.6 21.4446 9.87 20.4227 10.44C19.554 10.95 19.2474 12.08 19.7686 12.94C19.9321 13.21 20.1161 13.44 20.4022 13.58ZM9.10959 12.01C9.10959 13.58 10.4075 14.83 12.012 14.83C13.6164 14.83 14.8837 13.58 14.8837 12.01C14.8837 10.44 13.6164 9.18 12.012 9.18C10.4075 9.18 9.10959 10.44 9.10959 12.01Z" fill="currentColor"/>
</svg>
