<svg width="18" height="18" viewBox="0 0 18 18" fill="none" xmlns="http://www.w3.org/2000/svg">
<g id="Iconly/Bold/Video">
<g id="Video">
<path id="Video_2" fill-rule="evenodd" clip-rule="evenodd" d="M4.45741 3.28125H8.68078C10.4468 3.28125 11.6799 4.49826 11.6799 6.24233V11.2577C11.6799 13.0017 10.4468 14.2188 8.68078 14.2188H4.45741C2.69135 14.2188 1.45831 13.0017 1.45831 11.2577V6.24233C1.45831 4.49826 2.69135 3.28125 4.45741 3.28125ZM14.5527 5.01596C14.8728 4.8531 15.2483 4.87013 15.5538 5.0626C15.8594 5.25433 16.0417 5.58745 16.0417 5.95166V11.5489C16.0417 11.9138 15.8594 12.2462 15.5538 12.4379C15.3869 12.5423 15.2002 12.5956 15.0121 12.5956C14.8553 12.5956 14.6985 12.5586 14.552 12.4838L13.4721 11.939C13.0725 11.7361 12.8245 11.329 12.8245 10.8767V6.62309C12.8245 6.17004 13.0725 5.7629 13.4721 5.56154L14.5527 5.01596Z" fill="#E84C88"/>
</g>
</g>
</svg>
