<svg width="10" height="2" viewBox="0 0 10 2" fill="none" xmlns="http://www.w3.org/2000/svg">
<g clip-path="url(#clip0_159_455)">
<path fill-rule="evenodd" clip-rule="evenodd" d="M-6 1C-6 0.447715 -5.55228 0 -5 0H-3.25C-2.69772 0 -2.25 0.447715 -2.25 1C-2.25 1.55228 -2.69772 2 -3.25 2H-5C-5.55228 2 -6 1.55228 -6 1ZM2.75 1C2.75 0.447715 3.19771 0 3.75 0H7.25C7.80228 0 8.25 0.447715 8.25 1C8.25 1.55228 7.80228 2 7.25 2H3.75C3.19771 2 2.75 1.55228 2.75 1ZM13.25 1C13.25 0.447715 13.6977 0 14.25 0H17.75C18.3023 0 18.75 0.447715 18.75 1C18.75 1.55228 18.3023 2 17.75 2H14.25C13.6977 2 13.25 1.55228 13.25 1ZM23.75 1C23.75 0.447715 24.1977 0 24.75 0H28.25C28.8023 0 29.25 0.447715 29.25 1C29.25 1.55228 28.8023 2 28.25 2H24.75C24.1977 2 23.75 1.55228 23.75 1ZM34.25 1C34.25 0.447715 34.6977 0 35.25 0H37C37.5523 0 38 0.447715 38 1C38 1.55228 37.5523 2 37 2H35.25C34.6977 2 34.25 1.55228 34.25 1Z" fill="#A4B6E1"/>
</g>
<defs>
<clipPath id="clip0_159_455">
<rect width="10" height="2" fill="white"/>
</clipPath>
</defs>
</svg>
