<svg width="139" height="25" viewBox="0 0 139 25" fill="none" xmlns="http://www.w3.org/2000/svg">
<path d="M1.31651 3.60607C1.31651 2.21975 2.39958 2.52301 2.94111 2.84792C7.18671 8.56649 11.3529 10.1766 12.9053 10.2669C12.5804 9.23798 11.9305 3.49775 16.696 1.49409C20.5084 -0.108843 23.8081 1.62045 24.9814 2.68546C25.2522 2.46885 27.6349 1.87317 28.014 2.25224C28.3172 2.55549 27.5266 4.40031 27.0934 5.28481C28.9346 8.10077 29.1512 15.4656 25.8479 19.7437C22.5445 24.0218 18.3747 24.8341 13.0136 24.9965C7.65242 25.159 1.47897 19.7437 0.991595 18.0649C0.504217 16.3862 2.29127 16.7653 2.39958 16.8736L2.94111 17.4151C7.59827 22.343 13.2302 22.0723 15.5046 21.8015C17.7791 21.5307 22.2738 20.2852 24.115 15.953C25.9562 11.6207 25.4146 7.07186 23.2485 4.95989C21.0824 2.84792 16.9668 3.4436 16.2086 5.82634C15.4505 8.20908 15.7754 8.96722 16.696 10.9709C17.6166 12.9745 16.6418 14.2201 14.6382 14.2742C12.6345 14.3284 9.8727 12.7579 7.59827 11.2958C5.32384 9.83367 1.31651 5.33897 1.31651 3.60607Z" fill="#A974FF"/>
<path d="M2.12882 9.61712C1.91221 9.29221 0.179306 9.34636 0.666684 10.7002C0.738889 10.8987 1.06742 11.61 1.8039 12.8663C4.83608 17.6312 9.20466 19.1839 11.0099 19.3647C14.0425 19.3105 13.501 16.9819 13.1761 16.7112C12.8511 16.4404 13.2302 16.4404 9.54779 15.574C6.64519 14.8507 3.39239 11.3014 2.12882 9.61712Z" fill="#A974FF"/>
<path d="M45.4474 20.2472C44.3076 20.2472 43.2021 20.0961 42.131 19.794C41.0736 19.4782 40.2222 19.0731 39.5768 18.5787L40.7097 16.0657C41.3276 16.5188 42.0623 16.8827 42.9137 17.1574C43.7651 17.432 44.6165 17.5694 45.468 17.5694C46.4155 17.5694 47.1158 17.432 47.569 17.1574C48.0222 16.869 48.2488 16.4914 48.2488 16.0245C48.2488 15.6812 48.1114 15.3996 47.8368 15.1799C47.5759 14.9465 47.2326 14.7611 46.8069 14.6238C46.3949 14.4864 45.8319 14.3354 45.1178 14.1706C44.0192 13.9097 43.1197 13.6488 42.4194 13.3879C41.719 13.1269 41.1148 12.7081 40.6067 12.1313C40.1123 11.5546 39.8651 10.7856 39.8651 9.82429C39.8651 8.98662 40.0917 8.23134 40.5449 7.55845C40.9981 6.87183 41.6778 6.3294 42.5842 5.93116C43.5042 5.53292 44.6234 5.3338 45.9417 5.3338C46.8618 5.3338 47.7613 5.44366 48.6401 5.66338C49.519 5.8831 50.288 6.19894 50.9472 6.61091L49.9173 9.14454C48.5852 8.38926 47.2532 8.01162 45.9211 8.01162C44.9873 8.01162 44.2938 8.16268 43.8407 8.46479C43.4012 8.7669 43.1815 9.16514 43.1815 9.65951C43.1815 10.1539 43.4356 10.5246 43.9437 10.7718C44.4655 11.0053 45.2551 11.2387 46.3125 11.4722C47.4111 11.7331 48.3106 11.994 49.0109 12.2549C49.7113 12.5158 50.3086 12.9278 50.803 13.4908C51.3111 14.0539 51.5651 14.816 51.5651 15.7773C51.5651 16.6012 51.3317 17.3565 50.8648 18.0431C50.4116 18.716 49.725 19.2516 48.8049 19.6498C47.8849 20.0481 46.7657 20.2472 45.4474 20.2472ZM58.892 20.1648C57.7247 20.1648 56.6742 19.9245 55.7404 19.4438C54.8203 18.9495 54.0994 18.2697 53.5775 17.4046C53.0557 16.5394 52.7948 15.5576 52.7948 14.459C52.7948 13.3604 53.0557 12.3785 53.5775 11.5134C54.0994 10.6482 54.8203 9.97535 55.7404 9.49472C56.6742 9.00035 57.7247 8.75317 58.892 8.75317C60.0592 8.75317 61.1029 9.00035 62.023 9.49472C62.943 9.97535 63.664 10.6482 64.1858 11.5134C64.7076 12.3785 64.9685 13.3604 64.9685 14.459C64.9685 15.5576 64.7076 16.5394 64.1858 17.4046C63.664 18.2697 62.943 18.9495 62.023 19.4438C61.1029 19.9245 60.0592 20.1648 58.892 20.1648ZM58.892 17.5282C59.7159 17.5282 60.3888 17.2535 60.9106 16.7042C61.4462 16.1412 61.714 15.3928 61.714 14.459C61.714 13.5252 61.4462 12.7836 60.9106 12.2343C60.3888 11.6713 59.7159 11.3898 58.892 11.3898C58.068 11.3898 57.3883 11.6713 56.8527 12.2343C56.3171 12.7836 56.0494 13.5252 56.0494 14.459C56.0494 15.3928 56.3171 16.1412 56.8527 16.7042C57.3883 17.2535 58.068 17.5282 58.892 17.5282ZM72.4721 20.1648C71.2911 20.1648 70.2268 19.9245 69.2793 19.4438C68.3455 18.9495 67.6108 18.2697 67.0752 17.4046C66.5534 16.5394 66.2925 15.5576 66.2925 14.459C66.2925 13.3604 66.5534 12.3785 67.0752 11.5134C67.6108 10.6482 68.3455 9.97535 69.2793 9.49472C70.2268 9.00035 71.2911 8.75317 72.4721 8.75317C73.6393 8.75317 74.6555 9.00035 75.5207 9.49472C76.3995 9.97535 77.0381 10.6688 77.4363 11.5752L74.9439 12.9141C74.3671 11.8979 73.5363 11.3898 72.4515 11.3898C71.6138 11.3898 70.9203 11.6644 70.371 12.2137C69.8217 12.763 69.5471 13.5114 69.5471 14.459C69.5471 15.4065 69.8217 16.1549 70.371 16.7042C70.9203 17.2535 71.6138 17.5282 72.4515 17.5282C73.5501 17.5282 74.3809 17.0201 74.9439 16.0039L77.4363 17.3634C77.0381 18.2423 76.3995 18.9289 75.5207 19.4232C74.6555 19.9176 73.6393 20.1648 72.4721 20.1648ZM79.2865 8.91796H82.4999V20H79.2865V8.91796ZM80.8932 7.37306C80.3027 7.37306 79.8221 7.20141 79.4513 6.8581C79.0805 6.51479 78.8951 6.08908 78.8951 5.58098C78.8951 5.07289 79.0805 4.64718 79.4513 4.30387C79.8221 3.96056 80.3027 3.78891 80.8932 3.78891C81.4837 3.78891 81.9643 3.9537 82.3351 4.28327C82.7059 4.61285 82.8913 5.02482 82.8913 5.51919C82.8913 6.05475 82.7059 6.50105 82.3351 6.8581C81.9643 7.20141 81.4837 7.37306 80.8932 7.37306ZM90.7554 20.1648C89.5882 20.1648 88.5376 19.9245 87.6038 19.4438C86.6838 18.9495 85.9628 18.2697 85.441 17.4046C84.9191 16.5394 84.6582 15.5576 84.6582 14.459C84.6582 13.3604 84.9191 12.3785 85.441 11.5134C85.9628 10.6482 86.6838 9.97535 87.6038 9.49472C88.5376 9.00035 89.5882 8.75317 90.7554 8.75317C91.9227 8.75317 92.9663 9.00035 93.8864 9.49472C94.8065 9.97535 95.5274 10.6482 96.0493 11.5134C96.5711 12.3785 96.832 13.3604 96.832 14.459C96.832 15.5576 96.5711 16.5394 96.0493 17.4046C95.5274 18.2697 94.8065 18.9495 93.8864 19.4438C92.9663 19.9245 91.9227 20.1648 90.7554 20.1648ZM90.7554 17.5282C91.5794 17.5282 92.2522 17.2535 92.7741 16.7042C93.3096 16.1412 93.5774 15.3928 93.5774 14.459C93.5774 13.5252 93.3096 12.7836 92.7741 12.2343C92.2522 11.6713 91.5794 11.3898 90.7554 11.3898C89.9315 11.3898 89.2517 11.6713 88.7162 12.2343C88.1806 12.7836 87.9128 13.5252 87.9128 14.459C87.9128 15.3928 88.1806 16.1412 88.7162 16.7042C89.2517 17.2535 89.9315 17.5282 90.7554 17.5282ZM112.328 20L112.307 11.3486L108.064 18.4757H106.56L102.337 11.534V20H99.2065V5.58098H101.967L107.364 14.5414L112.678 5.58098H115.418L115.459 20H112.328ZM123.123 8.75317C124.84 8.75317 126.158 9.16514 127.078 9.98908C127.998 10.7993 128.458 12.0283 128.458 13.6762V20H125.451V18.6199C124.846 19.6498 123.72 20.1648 122.073 20.1648C121.221 20.1648 120.48 20.0206 119.848 19.7322C119.23 19.4438 118.756 19.0456 118.427 18.5375C118.097 18.0294 117.932 17.4526 117.932 16.8072C117.932 15.7773 118.317 14.9671 119.086 14.3766C119.868 13.7861 121.07 13.4908 122.69 13.4908H125.245C125.245 12.7905 125.032 12.2549 124.606 11.8842C124.18 11.4996 123.542 11.3074 122.69 11.3074C122.1 11.3074 121.516 11.4035 120.94 11.5958C120.377 11.7743 119.896 12.0215 119.498 12.3373L118.344 10.0921C118.948 9.66637 119.669 9.33679 120.507 9.10334C121.358 8.86989 122.23 8.75317 123.123 8.75317ZM122.876 18.0019C123.425 18.0019 123.913 17.8783 124.338 17.6312C124.764 17.3702 125.066 16.9926 125.245 16.4982V15.3653H123.041C121.722 15.3653 121.063 15.7979 121.063 16.663C121.063 17.075 121.221 17.4046 121.537 17.6518C121.867 17.8852 122.313 18.0019 122.876 18.0019ZM138.514 19.4644C138.198 19.6979 137.807 19.8764 137.34 20C136.887 20.1099 136.406 20.1648 135.898 20.1648C134.58 20.1648 133.557 19.8283 132.829 19.1555C132.115 18.4826 131.758 17.4938 131.758 16.1893V11.637H130.048V9.16514H131.758V6.46672H134.971V9.16514H137.731V11.637H134.971V16.1481C134.971 16.615 135.088 16.9789 135.321 17.2398C135.568 17.487 135.912 17.6106 136.351 17.6106C136.859 17.6106 137.292 17.4732 137.649 17.1986L138.514 19.4644Z" fill="#25396F"/>
<line x1="53" y1="24" x2="65" y2="24" stroke="#25396F" stroke-width="2"/>
</svg>
