<svg width="24" height="24" viewBox="0 0 24 24" fill="none" xmlns="http://www.w3.org/2000/svg">
<path d="M10.3893 12.8053C10.7352 13.2677 11.1765 13.6503 11.6832 13.9271C12.1899 14.204 12.7502 14.3686 13.3262 14.4098C13.9021 14.4511 14.4802 14.368 15.0212 14.1662C15.5622 13.9644 16.0534 13.6486 16.4617 13.2402L18.8777 10.8242C19.6112 10.0647 20.0171 9.04755 20.0079 7.99175C19.9987 6.93595 19.5753 5.926 18.8287 5.17941C18.0821 4.43281 17.0721 4.00933 16.0163 4.00015C14.9605 3.99098 13.9434 4.39685 13.1839 5.13035L11.7987 6.5075" stroke="currentColor" stroke-width="1.6107" stroke-linecap="round" stroke-linejoin="round"/>
<path d="M13.6107 11.1946C13.2648 10.7323 12.8236 10.3497 12.3168 10.0728C11.8101 9.796 11.2498 9.63137 10.6738 9.59012C10.0979 9.54887 9.51983 9.63197 8.97883 9.83378C8.43783 10.0356 7.94656 10.3514 7.53834 10.7598L5.1223 13.1758C4.38879 13.9353 3.98292 14.9524 3.9921 16.0082C4.00127 17.064 4.42476 18.074 5.17135 18.8206C5.91794 19.5672 6.9279 19.9906 7.98369 19.9998C9.03949 20.009 10.0567 19.6031 10.8161 18.8696L12.1933 17.4925" stroke="currentColor" stroke-width="1.6107" stroke-linecap="round" stroke-linejoin="round"/>
</svg>
