<svg width="33" height="33" viewBox="0 0 33 33" fill="none" xmlns="http://www.w3.org/2000/svg">
<g filter="url(#filter0_d_164_461)">
<path d="M29 16.5C29 9.59644 23.4036 4 16.5 4C9.59644 4 4 9.59644 4 16.5C4 22.7391 8.57107 27.9104 14.5469 28.8481V20.1133H11.373V16.5H14.5469V13.7461C14.5469 10.6133 16.4131 8.88281 19.2683 8.88281C20.6359 8.88281 22.0664 9.12695 22.0664 9.12695V12.2031H20.4902C18.9374 12.2031 18.4531 13.1667 18.4531 14.1552V16.5H21.9199L21.3657 20.1133H18.4531V28.8481C24.4289 27.9104 29 22.7391 29 16.5Z" fill="#1877F2"/>
<path d="M21.3657 20.1133L21.9199 16.5H18.4531V14.1552C18.4531 13.1667 18.9374 12.2031 20.4902 12.2031H22.0664V9.12695C22.0664 9.12695 20.6359 8.88281 19.2683 8.88281C16.4131 8.88281 14.5469 10.6133 14.5469 13.7461V16.5H11.373V20.1133H14.5469V28.8481C15.8411 29.0506 17.1589 29.0506 18.4531 28.8481V20.1133H21.3657Z" fill="white"/>
</g>
<defs>
<filter id="filter0_d_164_461" x="0" y="0" width="33" height="33" filterUnits="userSpaceOnUse" color-interpolation-filters="sRGB">
<feFlood flood-opacity="0" result="BackgroundImageFix"/>
<feColorMatrix in="SourceAlpha" type="matrix" values="0 0 0 0 0 0 0 0 0 0 0 0 0 0 0 0 0 0 127 0" result="hardAlpha"/>
<feOffset/>
<feGaussianBlur stdDeviation="2"/>
<feComposite in2="hardAlpha" operator="out"/>
<feColorMatrix type="matrix" values="0 0 0 0 1 0 0 0 0 1 0 0 0 0 1 0 0 0 1 0"/>
<feBlend mode="normal" in2="BackgroundImageFix" result="effect1_dropShadow_164_461"/>
<feBlend mode="normal" in="SourceGraphic" in2="effect1_dropShadow_164_461" result="shape"/>
</filter>
</defs>
</svg>
