<svg width="41" height="40" viewBox="0 0 41 40" fill="none" xmlns="http://www.w3.org/2000/svg">
<rect x="8" y="7" width="25" height="25" rx="12.5" fill="white"/>
<g filter="url(#filter0_d_164_454)">
<path d="M20.4984 7C13.5969 7 8.00001 12.6188 8.00001 19.55C7.99719 22.1805 8.82112 24.7455 10.3554 26.8822C11.8896 29.019 14.0566 30.6196 16.55 31.4578C17.175 31.5734 17.4031 31.1859 17.4031 30.8531C17.4031 30.5547 17.3922 29.7656 17.3859 28.7188C13.9094 29.4766 13.175 27.0359 13.175 27.0359C12.6078 25.5859 11.7875 25.2 11.7875 25.2C10.6516 24.4219 11.8719 24.4375 11.8719 24.4375C13.1266 24.5266 13.7859 25.7313 13.7859 25.7313C14.9016 27.6484 16.7125 27.0953 17.425 26.7734C17.5375 25.9625 17.8609 25.4094 18.2188 25.0953C15.4438 24.7781 12.525 23.7016 12.525 18.8938C12.525 17.5234 13.0125 16.4031 13.8125 15.525C13.6828 15.2078 13.2547 13.9313 13.9344 12.2047C13.9344 12.2047 14.9844 11.8672 17.3719 13.4906C18.3918 13.2119 19.4443 13.07 20.5016 13.0688C21.5589 13.0708 22.6113 13.2132 23.6313 13.4922C26.0172 11.8688 27.0656 12.2063 27.0656 12.2063C27.7469 13.9344 27.3188 15.2094 27.1906 15.5266C27.9922 16.4047 28.475 17.525 28.475 18.8953C28.475 23.7156 25.5531 24.7766 22.7688 25.0875C23.2172 25.475 23.6172 26.2406 23.6172 27.4109C23.6172 29.0891 23.6016 30.4422 23.6016 30.8531C23.6016 31.1891 23.8266 31.5797 24.4609 31.4563C26.9519 30.6161 29.1162 29.0149 30.6483 26.8786C32.1804 24.7423 33.003 22.1789 33 19.55C33 12.6188 27.4031 7 20.4984 7Z" fill="black"/>
</g>
<defs>
<filter id="filter0_d_164_454" x="0" y="-1" width="41" height="40.4795" filterUnits="userSpaceOnUse" color-interpolation-filters="sRGB">
<feFlood flood-opacity="0" result="BackgroundImageFix"/>
<feColorMatrix in="SourceAlpha" type="matrix" values="0 0 0 0 0 0 0 0 0 0 0 0 0 0 0 0 0 0 127 0" result="hardAlpha"/>
<feOffset/>
<feGaussianBlur stdDeviation="4"/>
<feComposite in2="hardAlpha" operator="out"/>
<feColorMatrix type="matrix" values="0 0 0 0 1 0 0 0 0 1 0 0 0 0 1 0 0 0 1 0"/>
<feBlend mode="normal" in2="BackgroundImageFix" result="effect1_dropShadow_164_454"/>
<feBlend mode="normal" in="SourceGraphic" in2="effect1_dropShadow_164_454" result="shape"/>
</filter>
</defs>
</svg>
